<svg xmlns="http://www.w3.org/2000/svg" viewBox="0 0 1604.28 489.14"><defs><style>.cls-1{fill:#2667ff;}</style></defs>
<g id="Layer_2" data-name="Layer 2"><g id="Layer_1-2" data-name="Layer 1"><g id="Icone"><path class="cls-1" d="M165.74,354.05l-1-.7-.34-.24c-.76-.56-1.51-1.12-2.26-1.7-.24-.18-.48-.36-.7-.55-.62-.47-1.23-1-1.83-1.44-.2-.15-.39-.3-.57-.46-.55-.44-1.1-.9-1.64-1.36l-.78-.66c-1.34-1.13-2.65-2.3-3.93-3.49l-1.92-1.81-.1-.1-1.38-1.35q-.23-.21-.45-.45-.85-.84-1.68-1.71t-1.65-1.74c-.39-.41-.78-.83-1.16-1.26s-.69-.75-1-1.13-.92-1-1.38-1.57L140.84,331c-.9-1.07-1.78-2.16-2.64-3.26-.29-.35-.57-.71-.84-1.07s-.75-1-1.12-1.48-.92-1.24-1.38-1.88-.79-1.1-1.17-1.66-.94-1.36-1.4-2.06c-.17-.24-.34-.48-.5-.73l-.14-.22-.64-1a.83.83,0,0,1-.09-.16c-.36-.54-.71-1.08-1-1.64-.08-.15-.18-.31-.27-.46a8.65,8.65,0,0,1-.47-.76q-.42-.67-.84-1.38l-.1-.17q-1.23-2.05-2.36-4.16c-.41-.73-.8-1.46-1.18-2.21s-.74-1.44-1.1-2.17a.2.2,0,0,1,0-.08c-.13-.26-.26-.53-.4-.8-.23-.47-.46-1-.68-1.43-.36-.75-.71-1.51-1.05-2.27l-.93-2.11-.3-.71c-.39-.93-.78-1.86-1.15-2.81-.09-.21-.17-.43-.26-.65s-.07-.19-.1-.28c-.36-.91-.71-1.84-1-2.77-.2-.52-.39-1.05-.56-1.59-.38-1.06-.73-2.12-1.07-3.2-.16-.46-.3-.91-.43-1.37s-.37-1.19-.54-1.79-.34-1.14-.49-1.71c-.23-.79-.44-1.59-.64-2.4l0-.1c-.21-.8-.41-1.62-.6-2.44s-.38-1.6-.55-2.41l0-.14c-.18-.82-.35-1.64-.51-2.47s-.3-1.54-.44-2.31c0-.07,0-.15,0-.22-.14-.8-.28-1.6-.4-2.41a1.43,1.43,0,0,1,0-.22c-.11-.7-.22-1.41-.31-2.13,0-.12,0-.23,0-.36-.11-.82-.23-1.65-.32-2.49l-.06-.5c-.08-.72-.16-1.46-.23-2.19l-.09-1.06,0-.29-.06-.69c0-.42-.07-.85-.1-1.28s-.06-.85-.09-1.27,0-.81-.07-1.21c0-.69-.07-1.38-.1-2.08s0-1.24-.06-1.86c0-.31,0-.63,0-.94,0-.84,0-1.67,0-2.52,0-.68,0-1.35,0-2,0-.43,0-.86,0-1.3s0-1,0-1.47c0-.8.06-1.59.11-2.39,0-.49,0-1,.08-1.47s.06-.9.1-1.35.08-1.12.13-1.68.11-1.12.16-1.68.13-1.25.19-1.87l.18-1.48c0-.34.08-.67.13-1,.09-.68.19-1.37.29-2.06.07-.45.13-.9.2-1.35l0-.17c.12-.74.25-1.48.38-2.22s.28-1.52.43-2.29q.08-.47.18-.93c0-.26.1-.52.16-.78s.15-.74.24-1.1c.15-.72.31-1.43.48-2.15s.28-1.17.42-1.76c.1-.38.2-.75.29-1.13,0-.06,0-.12.05-.19.09-.32.17-.63.26-1s.17-.61.26-.93.23-.85.36-1.28.2-.73.31-1.09.13-.47.21-.7a2.76,2.76,0,0,0,.08-.27c.08-.26.16-.51.23-.75.19-.63.39-1.25.6-1.88.13-.42.28-.83.42-1.25.07-.2.13-.41.21-.61s.14-.43.22-.65.16-.44.24-.67l.3-.83.12-.34c.37-1,.75-2,1.16-3.06.25-.64.51-1.27.77-1.9l.44-1c0-.11.09-.23.15-.34.16-.42.34-.83.52-1.24s.44-1,.67-1.49.44-1,.67-1.47c.46-1,.94-2,1.42-2.93.13-.28.28-.57.42-.85l.12-.23c.25-.51.51-1,.77-1.49.71-1.36,1.45-2.7,2.2-4l1-1.81c.42-.72.85-1.44,1.29-2.14h0c-5.23-11.18-7.7-20.72-7-27.9l-.25.31c-.54.67-1.08,1.36-1.61,2-.84,1.09-1.67,2.17-2.47,3.27-.44.58-.86,1.16-1.28,1.75-1.2,1.66-2.35,3.35-3.47,5.06l-.91,1.38q-1.58,2.46-3.07,5c-.51.85-1,1.73-1.5,2.6s-.87,1.53-1.28,2.31l0,.05-.64,1.19c-1,1.8-1.89,3.64-2.78,5.49-.41.84-.81,1.7-1.2,2.56s-.77,1.69-1.14,2.54a.09.09,0,0,0,0,.06c-.17.38-.33.77-.5,1.16-.77,1.79-1.5,3.58-2.19,5.4-.3.75-.58,1.5-.86,2.26-.83,2.29-1.62,4.61-2.35,7-.16.46-.3.93-.43,1.4l-.51,1.68c-.16.56-.32,1.12-.47,1.68s-.3,1.07-.44,1.61c-.25,1-.5,1.93-.74,2.9-.07.23-.12.46-.18.7-.23.95-.45,1.91-.66,2.87-.12.55-.23,1.09-.35,1.63s-.22,1-.32,1.55c0,.07,0,.14,0,.2-.1.52-.2,1-.29,1.54q-1,5.48-1.67,11.08c-.07.61-.14,1.23-.2,1.85l-.21,2.17c0,.59-.09,1.18-.14,1.77s-.08,1.1-.11,1.64-.08,1.14-.11,1.72,0,1.07-.07,1.62c0,.33,0,.66,0,1s0,.68,0,1c0,.51,0,1,0,1.54,0,1.15,0,2.31,0,3.47,0,2,0,4,.11,6,0,1.27.11,2.54.19,3.81q.25,4.07.71,8.06c.08.65.15,1.3.24,1.95s.13,1.05.21,1.57.17,1.27.28,1.9.19,1.27.29,1.91c.07.44.14.89.22,1.34.25,1.44.52,2.88.81,4.3.12.63.25,1.25.39,1.87s.26,1.24.4,1.86c.28,1.24.57,2.48.89,3.69.15.61.31,1.23.47,1.84q.73,2.75,1.56,5.45c.36,1.19.74,2.39,1.14,3.58.21.65.43,1.3.66,1.94l.57,1.6c.42,1.18.85,2.35,1.31,3.51q.33.87.69,1.74c.22.58.46,1.16.7,1.73s.54,1.3.83,2c.2.49.42,1,.64,1.46s.51,1.14.76,1.7.53,1.13.78,1.69.53,1.12.81,1.68.54,1.1.83,1.66.55,1.1.83,1.65.57,1.1.87,1.64.7,1.32,1.07,2c.23.42.47.84.71,1.26s.59,1.08.91,1.61l.94,1.59c.38.65.77,1.31,1.18,1.94.24.41.49.81.74,1.21.68,1.08,1.37,2.16,2.07,3.21l.66,1,1.44,2.11c.38.55.76,1.1,1.15,1.64.55.78,1.12,1.55,1.69,2.31s1.14,1.53,1.73,2.28l.8,1c.76,1,1.53,1.92,2.31,2.87,1.16,1.42,2.36,2.82,3.58,4.19l1.17,1.3,1.31,1.42c.4.44.83.89,1.25,1.34l1.27,1.32.42.42a6.5,6.5,0,0,0,.52.53h0l.2.21c.25.27.52.53.78.79l.19.17a12.16,12.16,0,0,0,1.27,1c6.52,4.4,17.6,3.48,31.67-1.86C166.57,354.65,166.15,354.35,165.74,354.05ZM399.4,239c0-1.27-.11-2.53-.19-3.81q-.25-4.07-.71-8.06c-.08-.65-.15-1.3-.24-2s-.13-1-.21-1.57-.17-1.27-.27-1.91-.19-1.26-.3-1.9c-.06-.44-.14-.89-.22-1.34-.24-1.44-.52-2.88-.8-4.3l-.39-1.87c-.14-.62-.27-1.24-.41-1.86-.28-1.24-.57-2.48-.89-3.7-.15-.6-.31-1.22-.47-1.83q-.74-2.75-1.56-5.45c-.36-1.19-.74-2.39-1.14-3.58-.21-.66-.43-1.3-.66-1.94l-.57-1.61c-.42-1.17-.85-2.34-1.31-3.5-.22-.58-.45-1.16-.68-1.74s-.47-1.16-.71-1.73-.54-1.3-.82-2c-.21-.49-.43-1-.65-1.46s-.5-1.14-.76-1.7l-.78-1.69c-.27-.56-.53-1.12-.81-1.68s-.54-1.1-.82-1.66-.56-1.11-.84-1.65-.57-1.1-.87-1.64-.7-1.33-1.07-2l-.7-1.26c-.3-.54-.6-1.08-.92-1.61s-.62-1.06-.94-1.59-.77-1.31-1.18-1.94c-.24-.41-.49-.81-.74-1.21q-1.65-2.64-3.41-5.2h0c-.79-1.14-1.58-2.27-2.38-3.38-.4-.56-.81-1.13-1.23-1.68l-.07-.08c-.39-.53-.79-1-1.19-1.57l-1.26-1.64c-.76-1-1.53-1.91-2.31-2.86-1.16-1.42-2.36-2.82-3.58-4.19l-1.17-1.3c-.43-.48-.87-.94-1.3-1.42l-1.26-1.34-1.27-1.32c-.15-.16-.31-.32-.47-.47l-.67-.69-.79-.79-.19-.17a12.16,12.16,0,0,0-1.27-1c-6.52-4.4-17.6-3.49-31.67,1.86h0c.16.12.35.24.51.37.57.4,1.13.79,1.69,1.2.87.63,1.74,1.28,2.6,1.94l.5.38c.68.53,1.37,1.07,2,1.61l.63.5,1.22,1,1.08.91a.46.46,0,0,1,.07.07c.51.44,1,.88,1.53,1.34.75.65,1.48,1.3,2.19,2s1.17,1.08,1.75,1.63l.07.07c.6.57,1.19,1.15,1.78,1.74.25.23.49.46.72.71.55.55,1.1,1.11,1.64,1.68.89.93,1.77,1.86,2.62,2.81.33.36.66.72,1,1.09s.77.87,1.15,1.31l.23.26.57.67c.24.28.48.56.71.85.57.67,1.12,1.35,1.67,2,.38.47.75,1,1.13,1.43.54.68,1.06,1.39,1.6,2.09a.47.47,0,0,0,.06.09c.42.57.85,1.14,1.26,1.71l1.29,1.82,1.41,2h0c.46.69.92,1.38,1.36,2.08s.89,1.39,1.33,2.1.87,1.42,1.3,2.14c0,.05.06.11.1.17.39.64.77,1.3,1.14,2s.82,1.46,1.22,2.19.79,1.47,1.18,2.22l.71,1.39c.15.29.29.57.43.86.37.74.72,1.48,1.08,2.23a1,1,0,0,1,.09.17l1,2.1c.43.93.83,1.88,1.23,2.82.26.6.51,1.19.75,1.79,0,.13.1.26.15.38.21.53.42,1.05.62,1.57.11.27.21.53.31.81.25.65.49,1.29.72,2h0c.24.63.47,1.27.68,1.92l.16.45c.15.45.29.89.44,1.32l.36,1.09c.25.81.51,1.61.75,2.42h0l.7,2.44c.23.8.45,1.6.65,2.41l0,.09c.2.81.4,1.63.59,2.45s.38,1.6.56,2.41l0,.14c.18.82.36,1.64.52,2.47s.29,1.54.43,2.31c0,.07,0,.15,0,.22.15.8.28,1.6.4,2.41a1.24,1.24,0,0,1,0,.22c.11.7.22,1.41.31,2.13,0,.12,0,.23,0,.36.11.82.23,1.65.32,2.49l.06.5c.09.72.16,1.46.23,2.19,0,.33.07.67.09,1,0,.18,0,.35,0,.52s0,.33.05.5c0,.43.07.86.09,1.28s.06.86.09,1.28.06.81.08,1.21l.09,2.08c0,.61.05,1.24.06,1.86,0,.31,0,.63,0,.94,0,.84,0,1.67,0,2.52,0,.67,0,1.35,0,2,0,.44,0,.87,0,1.31s0,1,0,1.47c0,.8-.06,1.59-.1,2.39l-.09,1.47c0,.45-.06.9-.1,1.35s-.08,1.12-.13,1.68-.1,1.12-.16,1.68-.12,1.25-.19,1.87l-.18,1.48c-.08.67-.17,1.35-.27,2l0,.19c-.1.75-.2,1.5-.33,2.25a.59.59,0,0,0,0,.14c-.12.74-.24,1.48-.38,2.22,0,.06,0,.13,0,.18q-.18,1.07-.39,2.1c0,.17-.06.33-.09.49s-.07.29-.1.45-.12.61-.19.93-.14.63-.2.95c-.16.72-.32,1.43-.49,2.15l-.42,1.75-.34,1.33c-.09.32-.17.63-.26,1l-.06.26c-.15.57-.32,1.13-.48,1.69a2.5,2.5,0,0,0-.07.26c-.14.48-.27,1-.41,1.44l-.2.62,0,.12c-.07.22-.13.42-.2.63-.19.63-.4,1.26-.6,1.88s-.41,1.24-.63,1.86c-.07.22-.14.43-.22.65s-.16.44-.23.67-.2.55-.31.83c-.3.84-.61,1.69-.94,2.53-.23.58-.45,1.15-.68,1.72s-.57,1.39-.87,2.1-.48,1.14-.73,1.71l-.61,1.35c-.22.49-.44,1-.67,1.48l-.78,1.63c-.21.44-.42.87-.64,1.3s-.35.72-.54,1.08c-.28.55-.56,1.1-.86,1.65-.45.87-.91,1.73-1.38,2.57s-.94,1.69-1.43,2.52c-.26.45-.52.88-.79,1.32s-.56.94-.84,1.41c5.22,11.18,7.69,20.72,7,27.89l.25-.3,1.62-2c.83-1.09,1.66-2.17,2.47-3.27.43-.58.85-1.16,1.27-1.75,1.2-1.67,2.35-3.35,3.47-5.06.3-.45.61-.92.91-1.39,1.06-1.63,2.07-3.29,3.07-5,.52-.85,1-1.73,1.5-2.6s.87-1.53,1.29-2.31l0-.05.63-1.19c1-1.8,1.89-3.64,2.79-5.49.41-.85.81-1.7,1.19-2.56s.77-1.69,1.15-2.54a.14.14,0,0,0,0-.06c.18-.38.34-.77.5-1.16.77-1.79,1.5-3.58,2.19-5.4.3-.75.58-1.5.86-2.26.84-2.29,1.62-4.61,2.36-7,.15-.47.29-.93.42-1.4.22-.68.42-1.37.62-2.07q.19-.64.36-1.29c.16-.53.3-1.08.44-1.61.26-1,.5-1.93.74-2.9.07-.23.13-.46.18-.7.23-.95.45-1.91.66-2.87.12-.55.24-1.09.35-1.64s.22-1,.32-1.54c0-.07,0-.14,0-.2.11-.52.2-1,.3-1.54q1-5.48,1.66-11.08c.08-.62.14-1.23.2-1.85l.21-2.17c.05-.59.09-1.19.14-1.78a2.64,2.64,0,0,0,0-.28c0-.46.08-.9.09-1.35s.08-1.14.11-1.72.06-1.07.08-1.62c0-.33,0-.66,0-1s0-.68,0-1c0-.51,0-1,0-1.54,0-1.15,0-2.31,0-3.47Q399.52,242,399.4,239ZM352,323.85l-.05.09-.44.6c-.48.64-.95,1.28-1.45,1.92l-.54.7c-.47.61-.95,1.22-1.44,1.82l-.46.57c-.34.43-.69.86-1.05,1.28l-1,1.15v0q-1.79,2.08-3.65,4.08l-1.05,1.13-.3.32c-.58.6-1.15,1.19-1.74,1.78-.15.16-.3.3-.45.44a3.44,3.44,0,0,1-.27.27c-.47.48-.95,1-1.44,1.42s-1.15,1.11-1.74,1.65l-1.26,1.16c-.37.35-.75.68-1.13,1s-.87.77-1.32,1.15-.61.53-.93.79l-.67.58-.2.16c-.66.56-1.33,1.1-2,1.64-1.15.93-2.33,1.85-3.51,2.73l-.09.07-1.76,1.28c-.59.43-1.18.85-1.78,1.26h0q-1,.72-2,1.41h0c-.64.43-1.26.85-1.91,1.27l-.16.1q-1,.68-2.1,1.32l-1.34.83-.8.47-.17.11c-.65.39-1.3.77-2,1.14l-.34.2-1.84,1h0L305.37,364l-.17.1c-.41.21-.82.42-1.23.61-.25.14-.51.26-.78.39l-.07,0-.8.4q-.72.36-1.44.69l-.17.08c-.7.33-1.39.66-2.1,1s-1.39.63-2.11.93l-.7.31-2.18.89-1.28.51-.29.11-1.4.54-1.35.49h0c-.64.24-1.28.47-1.92.68l-.46.16c-.44.15-.87.31-1.32.44l-.29.09-.8.27-2.43.75c-.81.25-1.61.49-2.44.7s-1.61.44-2.4.65l-.1,0c-.82.21-1.62.41-2.44.6s-1.61.38-2.42.55a.58.58,0,0,1-.14,0l-2.46.51-2.31.44-.23,0c-.8.14-1.59.27-2.4.39l-.22,0c-.71.12-1.42.22-2.13.32l-.36,0q-1.25.18-2.49.33l-.51.05c-.72.09-1.45.17-2.18.23l-1,.1-1,.09-1.28.1c-.43,0-.85.05-1.27.08l-1.21.08c-.69,0-1.39.07-2.08.09s-1.25.05-1.86.06l-.95,0c-.83,0-1.68,0-2.51,0l-2,0c-.44,0-.86,0-1.3,0l-1.47,0c-.8,0-1.59-.05-2.39-.1l-1.47-.09c-.45,0-.91-.05-1.35-.09-2.26-.16-4.49-.39-6.71-.67-.68-.07-1.35-.17-2-.26l-.19,0-2.24-.33-.14,0-2.23-.38-.18,0-2.1-.4-.48-.09-.45-.09-.93-.19-.95-.21c-.72-.15-1.44-.31-2.15-.49l-1.76-.41-1.32-.35c-.32-.07-.65-.17-1-.25l-.27-.07c-.28-.08-.57-.15-.84-.24l-1.1-.31-1.1-.31-.34-.1-.35-.11-.39-.12-.64-.2c-1.25-.39-2.5-.8-3.73-1.22l-1.32-.46c-.28-.09-.56-.19-.83-.3l-2.53-.94c-.58-.23-1.15-.45-1.72-.69s-1.41-.57-2.1-.86c-1.53-.64-3-1.32-4.54-2-.56-.26-1.1-.51-1.64-.78l-1.29-.64-1.09-.54c-.56-.27-1.11-.56-1.65-.85-1.16-.61-2.3-1.24-3.44-1.88l-1.11-.63c-1.09-.63-2.19-1.28-3.26-1.94-11.18,5.23-20.72,7.7-27.9,7a3.65,3.65,0,0,0,.31.24c.67.54,1.35,1.09,2,1.62,1.07.84,2.17,1.66,3.27,2.47.58.44,1.16.86,1.75,1.27q2.48,1.79,5.05,3.47l1.39.92c1.64,1.05,3.3,2.08,5,3.07.86.51,1.73,1,2.61,1.5s1.53.86,2.31,1.28l0,0,1.19.64q2.72,1.44,5.5,2.78c.84.41,1.7.81,2.55,1.2s1.69.77,2.55,1.14l.06,0,1.16.49q2.66,1.15,5.4,2.2c.75.29,1.5.58,2.26.85q3.44,1.26,7,2.36l1.39.43,2.07.62,1.3.36,1.6.43c1,.26,1.93.51,2.9.75l.71.18,2.87.65c.55.13,1.09.24,1.63.35s1,.22,1.55.33a1.38,1.38,0,0,0,.2,0c.51.11,1,.2,1.54.3q5.47,1,11.07,1.66c.62.08,1.24.15,1.86.2l2.16.21,1.78.14.37,0,.63.05.64,0,1.72.1,1.61.09,1,0,1,0,1.54,0c1.15,0,2.31,0,3.47,0q3,0,6-.11c1.28-.05,2.54-.12,3.81-.19,2.71-.18,5.39-.41,8.06-.72l2-.23,1.58-.21c.64-.09,1.26-.17,1.9-.28l1.9-.29,1.34-.22c1.45-.25,2.88-.53,4.31-.81.63-.12,1.24-.26,1.87-.39l1.85-.41c1.24-.27,2.48-.57,3.7-.88l1.84-.48c1.82-.48,3.64-1,5.44-1.56,1.2-.36,2.4-.74,3.59-1.14l1.93-.65,1.61-.57q1.77-.63,3.51-1.32c.58-.21,1.16-.44,1.74-.68l1.73-.7c.65-.27,1.3-.54,2-.83l1.46-.65c.57-.24,1.14-.5,1.7-.76l1.68-.78,1.69-.8,1.66-.83c.55-.28,1.1-.55,1.64-.84l1.65-.86,2-1.08c.42-.22.85-.46,1.27-.7s1.06-.61,1.6-.91l1.59-.94c.66-.38,1.3-.78,1.95-1.18l1.21-.74L328.2,376l1.37-.9.28-.18.19-.12c.51-.34,1-.68,1.53-1l1.17-.81c1.55-1.1,3.1-2.21,4.62-3.36.52-.38,1-.77,1.52-1.16l1-.8c1-.76,1.91-1.53,2.86-2.31,1.42-1.16,2.82-2.36,4.19-3.58l1.31-1.17,1.41-1.3c.45-.41.9-.84,1.34-1.26s.89-.84,1.32-1.27c.15-.14.3-.28.43-.42l.05,0,.43-.43,0,0a2.08,2.08,0,0,0,.21-.21l.5-.48c.1-.1.2-.2.29-.31a1.54,1.54,0,0,0,.17-.19,10.57,10.57,0,0,0,1-1.26c4.4-6.52,3.49-17.61-1.85-31.67C353.06,322.38,352.53,323.12,352,323.85ZM341.34,123.53c-.68-.55-1.36-1.09-2-1.62-1.07-.85-2.16-1.66-3.27-2.47-.58-.44-1.16-.86-1.74-1.27-1.66-1.19-3.34-2.35-5.06-3.47l-1.39-.92c-1.63-1-3.3-2.08-5-3.07-.86-.51-1.73-1-2.6-1.5s-1.53-.86-2.31-1.28l-.05,0-1.19-.64q-2.71-1.44-5.49-2.78c-.85-.41-1.7-.81-2.56-1.2s-1.69-.77-2.55-1.14l-.05,0-1.16-.49q-2.67-1.16-5.4-2.2c-.75-.29-1.5-.58-2.27-.85-2.29-.84-4.6-1.63-7-2.36-.47-.15-.93-.3-1.4-.43-1.11-.34-2.23-.66-3.36-1l-1.61-.43c-1-.26-1.93-.51-2.9-.75l-.7-.18-2.87-.65c-.56-.13-1.1-.24-1.64-.35s-1-.22-1.55-.33l-.2,0-1.54-.29c-3.65-.68-7.34-1.25-11.07-1.66-.62-.08-1.24-.15-1.85-.2l-2.17-.21-1.78-.14c-.54,0-1.09-.09-1.63-.12l-1.72-.1-1.62-.08-1,0-1,0c-.52,0-1,0-1.54,0-1.15,0-2.31,0-3.47,0-2,0-4,0-6,.11-1.27,0-2.54.12-3.81.19-2.71.17-5.39.41-8.06.72l-2,.23-1.58.21c-.63.09-1.26.17-1.9.28l-1.9.29-1.34.22c-1.44.25-2.88.52-4.31.81l-1.87.39L209,93c-1.24.27-2.47.57-3.7.88-.61.15-1.23.32-1.83.48-1.83.48-3.64,1-5.45,1.56-1.2.36-2.4.74-3.58,1.14-.65.21-1.3.42-1.94.65l-1.61.57c-1.18.42-2.35.86-3.51,1.31q-.87.33-1.74.69L184,101c-.65.27-1.3.54-1.95.83-.5.21-1,.43-1.47.65s-1.14.5-1.7.76-1.12.52-1.68.78l-1.68.8c-.55.27-1.11.54-1.67.83s-1.1.55-1.64.84l-1.65.86c-.66.35-1.32.7-2,1.08-.42.22-.85.46-1.27.7s-1.06.61-1.6.91l-1.59.94c-.66.38-1.3.78-1.95,1.18l-1.21.74c-.88.55-1.74,1.11-2.61,1.68l-.6.39L156.11,116c-.14.08-.26.18-.39.26-.28.19-.57.38-.84.58L153.24,118l-.34.25c-.72.51-1.44,1.05-2.16,1.57a.83.83,0,0,1-.18.13L149,121.13c-.55.42-1.1.84-1.64,1.27-1,.76-1.91,1.53-2.86,2.3-1.42,1.17-2.81,2.37-4.19,3.59-.44.39-.87.77-1.3,1.17l-1.42,1.3L136.25,132l-1.32,1.28-.48.46-.42.43-.05,0c-.07.07-.14.13-.21.21l-.5.48-.07.08-.22.23a1.62,1.62,0,0,0-.17.19,10.81,10.81,0,0,0-1,1.26c-4.4,6.52-3.49,17.6,1.85,31.67.68-1,1.37-2,2.08-2.9l.07-.09c.46-.62.91-1.23,1.38-1.83.12-.17.26-.33.38-.49l.16-.21,1.45-1.83c.17-.2.33-.41.5-.62.33-.41.66-.82,1-1.22l.31-.37.6-.71.07-.07c.43-.51.88-1,1.34-1.54.26-.32.55-.64.84-1s.74-.83,1.12-1.24l.25-.26.21-.23.63-.67.55-.58.07-.07v0c.19-.21.39-.41.59-.62.37-.39.75-.77,1.13-1.15h0l.72-.71c.55-.55,1.11-1.1,1.68-1.64.92-.9,1.85-1.77,2.8-2.63l1.1-1c.42-.39.86-.77,1.31-1.15l.93-.8.85-.71c.67-.56,1.35-1.12,2-1.66.47-.38.94-.76,1.43-1.13.69-.54,1.38-1.08,2.09-1.6l.08-.07,1.71-1.25q.92-.66,1.83-1.29c.68-.49,1.37-1,2-1.41l.74-.49L170,133l1.12-.73,1.65-1c.4-.26.81-.51,1.21-.75.19-.13.39-.24.58-.36l.8-.47.17-.11,2-1.14.34-.2,1.85-1c.73-.4,1.47-.79,2.21-1.18l.17-.1c.4-.21.81-.42,1.23-.62.27-.15.57-.28.85-.42.75-.37,1.49-.74,2.24-1.09a.65.65,0,0,1,.17-.08q1-.51,2.1-1c.93-.43,1.87-.84,2.81-1.24l1.8-.74.38-.15c.22-.1.43-.17.64-.26l.93-.36c.26-.11.54-.22.81-.31.64-.25,1.3-.5,1.94-.73h0l1.59-.56.33-.11.46-.16c.53-.18,1.07-.37,1.62-.53.25-.1.52-.18.79-.27l.76-.24c.79-.25,1.6-.5,2.41-.73.56-.17,1.13-.33,1.7-.48.8-.23,1.6-.44,2.41-.65l.09,0c.81-.21,1.63-.41,2.44-.6s1.61-.38,2.42-.55a.7.7,0,0,1,.14,0q1.23-.27,2.46-.51l2.31-.44.23,0,2.4-.4.22,0c.71-.12,1.42-.22,2.13-.32l.36,0,2.49-.32.51-.06c.72-.08,1.45-.16,2.18-.22l1.07-.1c.33,0,.65-.07,1-.08l1.27-.11c.42,0,.85-.06,1.27-.08l1.21-.08,2.08-.1,1.87,0,.94,0c.83,0,1.68,0,2.52,0l2,0c.44,0,.87,0,1.3,0l1.48,0c.79,0,1.58,0,2.38.1l1.48.09c.44,0,.9,0,1.34.09l1.69.13,1.68.17c1.46.14,2.92.3,4.36.49l2.06.29,1.35.2a.57.57,0,0,0,.18,0l2.22.38,2.28.43c.31.06.63.11.93.18l.78.16c.37.08.74.15,1.1.24.73.15,1.44.31,2.15.49l1.76.41,1.13.3,1.15.3,2,.54.26.08,2.06.61.75.23c1.05.32,2.09.66,3.13,1l.61.21,2.14.76.35.13c1,.37,2,.76,3.06,1.16q2.28.89,4.52,1.88l1.49.66,1.48.68c1,.45,2,.93,2.92,1.41l.86.42.23.13c.5.24,1,.5,1.49.77.87.45,1.75.92,2.6,1.4a3.07,3.07,0,0,1,.31.17l1.11.62,1.3.75.1.06,1.15.68,1.39.84h0c11.18-5.23,20.73-7.7,27.9-7Z"/><path class="cls-1" d="M355.4,136.61a9.53,9.53,0,0,0-.68-.89,2.17,2.17,0,0,0-.24-.29.61.61,0,0,1-.07-.1c-.18-.19-.36-.39-.55-.57a.64.64,0,0,0-.15-.13,5.38,5.38,0,0,0-.49-.47,12.16,12.16,0,0,0-1.27-1c-6.52-4.4-17.6-3.49-31.67,1.86-19.17,7.28-43.85,22.78-70,44.23q7.22,6.09,14.5,12.77c35.84-30.68,65.29-48.26,73.17-42.2a2.74,2.74,0,0,1,.45.39c7.14,7.13-10.47,37-41.71,73.49-1.88,2.2-3.82,4.44-5.8,6.69s-3.85,4.32-5.84,6.52l-1.44,1.58c-1.94,2.14-3.94,4.29-6,6.47s-4,4.21-6,6.34q-1.67,1.74-3.38,3.5-3.62,3.71-7.34,7.44-5.51,5.5-11,10.74-3.16,3-6.3,6t-6.46,6l-1.65,1.5q-3.27,3-6.47,5.8,7.31,6.72,14.57,12.9,3.24-2.77,6.53-5.67l1.5-1.33c2.17-1.92,4.36-3.9,6.54-5.91s4.21-3.89,6.32-5.89q5.18-4.92,10.36-10.1t10.05-10.31l2.54-2.7,3.41-3.67q3-3.3,6-6.61c.4-.45.81-.9,1.2-1.35q2.94-3.33,5.73-6.62,3-3.47,5.77-6.89c21.35-26.05,36.78-50.64,44-69.74C358.94,154.24,359.84,143.12,355.4,136.61ZM149.32,340.16a1.51,1.51,0,0,1-.2-.17,1.86,1.86,0,0,1-.26-.23,2.18,2.18,0,0,1-.25-.28c-6.43-7.63,11.15-37.22,42-73.3q2.79-3.27,5.74-6.61t5.9-6.61l1.43-1.56q2.9-3.18,5.92-6.41t6.07-6.41c1.13-1.18,2.27-2.35,3.42-3.54q3.56-3.66,7.22-7.31,5.49-5.49,10.92-10.69,3.19-3.09,6.37-6c2.13-2,4.25-4,6.36-5.89l1.65-1.49q3.3-3,6.56-5.87-7.34-6.74-14.59-12.9-3.34,2.83-6.69,5.81l-1.22,1.07-.25.22c-1.64,1.48-3.3,3-4.95,4.48-.49.43-1,.87-1.45,1.32q-3.23,3-6.44,6-5.13,4.86-10.25,10t-9.91,10.18l-2.74,2.9c-1.12,1.19-2.24,2.4-3.33,3.6-2,2.17-4,4.31-5.86,6.47-.39.44-.77.89-1.16,1.32q-3,3.4-5.88,6.78t-5.64,6.75c-21.43,26.11-36.91,50.76-44.17,69.9-5.35,14.09-6.25,25.2-1.81,31.72a11.14,11.14,0,0,0,1,1.29l.2.21.34.36a.86.86,0,0,0,.14.13l.08.08c6.17,5.9,18,5.35,33.36-.5,19.11-7.26,43.73-22.7,69.81-44.09q-7.16-6.13-14.39-12.82C186.63,328.65,157.21,346.19,149.32,340.16Z"/><path class="cls-1" d="M303.78,245q-6.16-7.24-12.89-14.56-7.67-8.34-16-16.68t-16.67-16q-7.34-6.74-14.59-12.9c-43.84-37.33-84.6-58.72-103.58-53.74a14.32,14.32,0,0,0-6.63,3.66,13.52,13.52,0,0,0-3,4.58c-7.25,18,14.32,60.15,53.07,105.65q6.15,7.24,12.9,14.58,7.65,8.32,16,16.67t16.69,16q7.31,6.72,14.57,12.9c47.16,40.15,90.73,61.85,107.51,52.14a12.43,12.43,0,0,0,2.71-2.06,10.24,10.24,0,0,0,1-1.11C367.09,338.65,345.29,293.73,303.78,245Zm36.11,91.52a5.5,5.5,0,0,1-1.48,3.26,6,6,0,0,1-4.13,1.56c-12,.57-41.64-18.73-76.07-49.09-4.77-4.21-9.64-8.63-14.56-13.25-5.71-5.32-11.48-10.91-17.27-16.71S215,250.68,209.65,245q-6.92-7.4-13.25-14.57c-29.58-33.55-48.65-62.51-49.09-75.1a6.62,6.62,0,0,1,1.57-5.09c1.31-1.32,3.39-1.79,6.12-1.5,13.1,1.37,41.41,20.21,74.07,49q7.16,6.33,14.58,13.25c5.69,5.34,11.47,10.93,17.27,16.73S272.3,239.3,277.64,245q6.92,7.39,13.25,14.57C322,294.85,341.5,325.07,339.89,336.5Z"/><path class="cls-1" d="M369.25,286.39c-6.26-.05-10.78-3.16-13.4-8.76a2.92,2.92,0,0,0-3.25-2c-2.43.1-4.86,0-7.29,0q-6.71,0-8.36-5.76c-1.32-4.56.14-8.85,3.78-11.11.38-.24.77-.45,1.53-.9-3.66-1.92-5.7-4.59-5.69-8.74s1.56-7.11,5.76-9c-3.73-2-5.78-4.63-5.75-8.79s1.49-7.14,5.33-8.78c-.17-1.15-1.15-1.16-1.77-1.58-3.37-2.3-3.8-5.72-3.47-9.34a7.72,7.72,0,0,1,4.8-6.65,8.56,8.56,0,0,1,3.7-.57c8.36,0,16.73,0,25.09,0l29.83,0c2.79.07,5.58.08,8.37,0a13.52,13.52,0,0,1,11.5,5.39,4,4,0,0,0,3.63,1.68c4.22-.1,8.45,0,12.68-.07,1.63,0,2.41.28,2.41,2.18q-.1,22.13,0,44.26c0,1.88-.73,2.24-2.38,2.19-3.69-.09-7.38,0-11.07-.06-1.51,0-2.18.39-2.52,2-1.44,6.71-5.46,11.19-12.1,13.15a2.44,2.44,0,0,0-1.76,1.75c-2.59,6.72-6.77,9.63-14,9.58Z"/><path class="cls-1" d="M485.05,235.78c0,7.27-.06,14.55,0,21.83,0,1.88-.54,2.45-2.43,2.43q-16.57-.12-33.15,0c-1.79,0-2.29-.58-2.27-2.31q.12-11.6,0-23.18a2.62,2.62,0,0,1,2.06-2.92,15.56,15.56,0,0,0,5.59-3.17c1.47-1.39,1.46-2.78.11-4.21a13.63,13.63,0,0,0-5.13-3.41c-2.12-.8-2.72-2.09-2.65-4.28.15-5.12,0-5.13,5.1-5.13,10.06,0,20.12,0,30.19,0,2,0,2.62.51,2.59,2.55C485,221.22,485.05,228.5,485.05,235.78Z"/><path class="cls-1" d="M284.49,115.85c-.05,6.26-3.16,10.78-8.76,13.4a2.92,2.92,0,0,0-2,3.25c.1,2.43,0,4.86,0,7.29q0,6.69-5.75,8.35c-4.56,1.33-8.85-.13-11.11-3.77-.24-.38-.45-.77-.9-1.53-1.92,3.66-4.59,5.69-8.74,5.69s-7.11-1.56-9-5.76c-2,3.73-4.63,5.78-8.79,5.75s-7.14-1.49-8.78-5.33c-1.15.16-1.16,1.15-1.58,1.77-2.31,3.37-5.72,3.79-9.34,3.46a7.68,7.68,0,0,1-6.65-4.8,8.49,8.49,0,0,1-.57-3.69c0-8.37,0-16.73,0-25.09l0-29.83c.07-2.79.08-5.58,0-8.37a13.52,13.52,0,0,1,5.39-11.5,4,4,0,0,0,1.68-3.63c-.1-4.22,0-8.45-.07-12.68,0-1.63.27-2.42,2.18-2.41q22.13.11,44.26,0c1.88,0,2.24.74,2.19,2.39-.09,3.69,0,7.38-.06,11.07,0,1.51.38,2.18,2,2.52,6.71,1.44,11.18,5.46,13.14,12.1a2.47,2.47,0,0,0,1.76,1.76c6.72,2.59,9.62,6.77,9.58,14Z"/><path class="cls-1" d="M233.87.05c7.28,0,14.56.06,21.84,0,1.88,0,2.45.53,2.43,2.43q-.12,16.58,0,33.15c0,1.79-.58,2.29-2.32,2.27q-11.58-.12-23.17,0a2.62,2.62,0,0,1-2.92-2.07,15.75,15.75,0,0,0-3.17-5.58c-1.39-1.47-2.78-1.46-4.22-.11a13.72,13.72,0,0,0-3.4,5.13c-.8,2.11-2.09,2.71-4.28,2.65-5.13-.15-5.13,0-5.13-5.1,0-10.06.05-20.13,0-30.19C209.47.6,210,0,212,0,219.32.12,226.6.05,233.87.05Z"/><path class="cls-1" d="M202.51,371.15c.05-6.26,3.16-10.78,8.76-13.4a2.92,2.92,0,0,0,2-3.25c-.1-2.43,0-4.86,0-7.29q0-6.69,5.75-8.35c4.56-1.33,8.85.13,11.11,3.77.24.38.45.77.9,1.53,1.92-3.66,4.59-5.69,8.74-5.69s7.11,1.56,9,5.76c2-3.73,4.63-5.78,8.79-5.75s7.14,1.49,8.78,5.33c1.15-.16,1.16-1.15,1.58-1.77,2.31-3.37,5.72-3.79,9.34-3.46a7.68,7.68,0,0,1,6.65,4.8,8.49,8.49,0,0,1,.57,3.69c0,8.37,0,16.73,0,25.09l0,29.83c-.07,2.79-.08,5.58,0,8.37a13.52,13.52,0,0,1-5.39,11.5,4,4,0,0,0-1.68,3.63c.1,4.22,0,8.45.07,12.68,0,1.63-.27,2.42-2.18,2.41q-22.12-.1-44.26,0c-1.88,0-2.24-.74-2.19-2.39.09-3.69,0-7.38.06-11.07,0-1.51-.38-2.18-2-2.52-6.71-1.44-11.18-5.46-13.14-12.1a2.47,2.47,0,0,0-1.76-1.76c-6.72-2.59-9.62-6.77-9.58-14Z"/><path class="cls-1" d="M253.13,487c-7.28,0-14.56-.06-21.84,0-1.88,0-2.45-.53-2.43-2.43q.12-16.57,0-33.15c0-1.79.58-2.29,2.32-2.27q11.58.12,23.17,0a2.62,2.62,0,0,1,2.92,2.07,15.75,15.75,0,0,0,3.17,5.58c1.39,1.47,2.78,1.46,4.22.11a13.72,13.72,0,0,0,3.4-5.13c.8-2.11,2.09-2.71,4.28-2.65,5.13.15,5.13,0,5.13,5.1,0,10.06-.05,20.13,0,30.19,0,2-.51,2.62-2.55,2.59C267.68,486.88,260.4,487,253.13,487Z"/><path class="cls-1" d="M115.85,204.41c6.26.05,10.78,3.17,13.4,8.77a2.91,2.91,0,0,0,3.25,2c2.43-.1,4.86,0,7.29,0q6.69,0,8.35,5.75c1.33,4.56-.13,8.85-3.77,11.11-.38.24-.77.45-1.53.9,3.66,1.92,5.69,4.59,5.69,8.74s-1.56,7.11-5.76,9c3.73,2,5.78,4.63,5.75,8.79s-1.49,7.14-5.33,8.78c.16,1.15,1.15,1.16,1.77,1.58,3.37,2.31,3.79,5.72,3.46,9.34a7.67,7.67,0,0,1-4.8,6.65,8.49,8.49,0,0,1-3.69.57c-8.37,0-16.73,0-25.09,0L85,286.4c-2.79-.07-5.58-.08-8.37,0A13.52,13.52,0,0,1,65.14,281a4,4,0,0,0-3.63-1.67c-4.22.1-8.45,0-12.68.06-1.63,0-2.42-.27-2.41-2.18q.11-22.12,0-44.25c0-1.89.74-2.25,2.39-2.2,3.69.09,7.38,0,11.07.06,1.51,0,2.18-.38,2.52-2,1.44-6.71,5.46-11.18,12.1-13.14A2.47,2.47,0,0,0,76.26,214c2.59-6.72,6.77-9.62,14-9.58Z"/><path class="cls-1" d="M.05,255c0-7.28.06-14.56,0-21.84,0-1.88.53-2.45,2.43-2.43q16.58.12,33.15,0c1.79,0,2.29.58,2.27,2.32q-.12,11.58,0,23.18a2.62,2.62,0,0,1-2.07,2.91,15.91,15.91,0,0,0-5.58,3.17c-1.47,1.39-1.46,2.78-.11,4.22a13.6,13.6,0,0,0,5.13,3.4c2.11.8,2.71,2.09,2.65,4.28-.15,5.13,0,5.13-5.1,5.13-10.06,0-20.13-.05-30.19,0-2,0-2.62-.51-2.59-2.55C.12,269.58.05,262.3.05,255Z"/></g><path class="cls-1" d="M545.64,391v75.63H530.08V404.22H507.82V391Zm2.26,0h20v13.18H554.5Z"/><path class="cls-1" d="M602.14,411.78A26.87,26.87,0,0,1,613,414a28.78,28.78,0,0,1,8.86,6,28.46,28.46,0,0,1,6,8.86A26.94,26.94,0,0,1,630,439.76a27.9,27.9,0,0,1-.65,6.05l-.11.22H601.82l-6.92-11h20.53a16.11,16.11,0,0,0-5-7.46,12.56,12.56,0,0,0-8.27-2.91,13.12,13.12,0,0,0-5.51,1.18,14.26,14.26,0,0,0-4.48,3.18,14.4,14.4,0,0,0-3,4.73,16.22,16.22,0,0,0-1.08,6,14.65,14.65,0,0,0,1,5.11,15.53,15.53,0,0,0,2.81,4.79,16,16,0,0,0,4.43,3.61,11.7,11.7,0,0,0,5.83,1.45,16.82,16.82,0,0,0,5.35-.81,9.93,9.93,0,0,0,4.59-3.62l.11-.11.22.11,12.53,5.52-.22.22a27,27,0,0,1-9.88,8.5,28.17,28.17,0,0,1-32.58-5.05,28.46,28.46,0,0,1-6-8.86,27.67,27.67,0,0,1,0-21.72A28.08,28.08,0,0,1,591.18,414,27.45,27.45,0,0,1,602.14,411.78Z"/><path class="cls-1" d="M696.46,446l11.67,7.67-.11.11a27.79,27.79,0,0,1-24.09,13.83A26.91,26.91,0,0,1,673,465.42a28.35,28.35,0,0,1-8.86-6,28.66,28.66,0,0,1-6-8.86,27.52,27.52,0,0,1,0-21.61A28.31,28.31,0,0,1,673,414.1a27.07,27.07,0,0,1,10.91-2.21A27.74,27.74,0,0,1,708,425.72l.11.11-11.77,7.67-.11-.11a15.83,15.83,0,0,0-5-6.48,11.78,11.78,0,0,0-7.29-2.49,12.41,12.41,0,0,0-5.46,1.24A13.83,13.83,0,0,0,674.1,429a16.52,16.52,0,0,0-2.92,4.86,16,16,0,0,0-1.08,5.89,15.59,15.59,0,0,0,1.08,5.84,15.22,15.22,0,0,0,2.92,4.7,13.21,13.21,0,0,0,9.83,4.26,12.73,12.73,0,0,0,7.29-2.21,14,14,0,0,0,5-6.21l.11-.22Z"/><path class="cls-1" d="M735.25,391h14.37l-.11,75.63H735.14Zm49.52,28.09q4.83,6.48,4.83,20.52v27H775.23V439.72c0-1.93-.06-3.8-.17-5.6a12.52,12.52,0,0,0-1.13-4.74,7.12,7.12,0,0,0-3.13-3.23,13,13,0,0,0-6.16-1.19,16.16,16.16,0,0,0-6.81,1.73l-.11.11-.11-.22-5.18-9.36.11-.1a19.06,19.06,0,0,1,6.26-3.76,22,22,0,0,1,7.57-1.26Q779.41,412.1,784.77,419.13Z"/><path class="cls-1" d="M817.79,412.64h14.7v54h-14.7Zm49.92,6.27a20.69,20.69,0,0,1,3.89,8.43,56.15,56.15,0,0,1,1.19,12.53v26.8h-14.7V439.8c0-2-.05-3.95-.16-5.79a13.51,13.51,0,0,0-1.13-4.88,7.1,7.1,0,0,0-3.14-3.3,13,13,0,0,0-6.15-1.19,15.49,15.49,0,0,0-7,1.62v.11l-.1-.11-5.3-9.34.11-.1a20.25,20.25,0,0,1,14-5Q862.2,411.78,867.71,418.91Z"/><path class="cls-1" d="M927.24,411.78A27.07,27.07,0,0,1,938.15,414,28.31,28.31,0,0,1,953,428.85a27.4,27.4,0,0,1,0,21.61,28.31,28.31,0,0,1-14.86,14.86,28,28,0,0,1-21.82,0,28.31,28.31,0,0,1-14.86-14.86,27.52,27.52,0,0,1,0-21.61A28.31,28.31,0,0,1,916.33,414,27.07,27.07,0,0,1,927.24,411.78Zm0,42.89a10.92,10.92,0,0,0,5-1.18,13.57,13.57,0,0,0,4.1-3.3,16.24,16.24,0,0,0,2.81-4.86,17.18,17.18,0,0,0,1-6,16.52,16.52,0,0,0-1-5.78,14.66,14.66,0,0,0-2.81-4.75,14,14,0,0,0-4.1-3.19,10.93,10.93,0,0,0-5-1.19,11.26,11.26,0,0,0-5.08,1.19A13.72,13.72,0,0,0,918,428.8a14.81,14.81,0,0,0-2.8,4.75,16.3,16.3,0,0,0-1,5.78,17,17,0,0,0,1,6,16.43,16.43,0,0,0,2.8,4.86,13.32,13.32,0,0,0,4.16,3.3A11.25,11.25,0,0,0,927.24,454.67Z"/><path class="cls-1" d="M996.61,391v75.63H982.24l.1-75.63Z"/><path class="cls-1" d="M1051.6,411.78a27.1,27.1,0,0,1,10.91,2.21,28.31,28.31,0,0,1,14.86,14.86,27.52,27.52,0,0,1,0,21.61,28.31,28.31,0,0,1-14.86,14.86,28,28,0,0,1-21.82,0,28.31,28.31,0,0,1-14.86-14.86,27.52,27.52,0,0,1,0-21.61A28.31,28.31,0,0,1,1040.69,414,27.07,27.07,0,0,1,1051.6,411.78Zm0,42.89a10.88,10.88,0,0,0,5-1.18,13.49,13.49,0,0,0,4.11-3.3,16.45,16.45,0,0,0,2.81-4.86,17.18,17.18,0,0,0,1-6,16.51,16.51,0,0,0-1-5.78,14.83,14.83,0,0,0-2.81-4.75,13.89,13.89,0,0,0-4.11-3.19,10.89,10.89,0,0,0-5-1.19,11.23,11.23,0,0,0-5.08,1.19,13.72,13.72,0,0,0-4.16,3.19,14.83,14.83,0,0,0-2.81,4.75,16.51,16.51,0,0,0-1,5.78,17.18,17.18,0,0,0,1,6,16.45,16.45,0,0,0,2.81,4.86,13.32,13.32,0,0,0,4.16,3.3A11.22,11.22,0,0,0,1051.6,454.67Z"/><path class="cls-1" d="M1165.15,412.64v47.87a31.12,31.12,0,0,1-2.7,11.29,29.06,29.06,0,0,1-15.56,15.12,28.74,28.74,0,0,1-11.23,2.22,29.73,29.73,0,0,1-25.72-14.7l-.11-.21.11-.11,11.89-5.19a12.43,12.43,0,0,0,2.75,3.41,16.29,16.29,0,0,0,3.57,2.37,18.51,18.51,0,0,0,3.89,1.41,16.42,16.42,0,0,0,3.83.49,13.42,13.42,0,0,0,5.51-1.2,14.32,14.32,0,0,0,4.81-3.46,17.16,17.16,0,0,0,3.35-5.41,19,19,0,0,0,1.24-7V439.69a14.16,14.16,0,0,0-1.24-5.9,15,15,0,0,0-3.35-4.77,16.39,16.39,0,0,0-4.86-3.19,15.17,15.17,0,0,0-11.78,0,16,16,0,0,0-4.81,3.21,15,15,0,0,0-4.43,10.72,14.54,14.54,0,0,0,1.19,5.88,15.77,15.77,0,0,0,3.24,4.79,15.22,15.22,0,0,0,4.81,3.26,14.6,14.6,0,0,0,5.89,1.2,13.39,13.39,0,0,0,5.83-1.19h.11l.11.11,5.4,9.54-.1.11a20.13,20.13,0,0,1-13.08,4.29,27.71,27.71,0,0,1-11-2.22,28.05,28.05,0,0,1-9-6,28.39,28.39,0,0,1-6-8.92,27.8,27.8,0,0,1,0-21.77,28,28,0,0,1,15-14.86,27.88,27.88,0,0,1,11-2.21q11,0,17.07,8.25v-7.39Z"/><path class="cls-1" d="M1193.24,391h14.37v12.64h-14.37Zm0,75.63v-54h14.37v54Z"/><path class="cls-1" d="M1262.71,411.78a26.87,26.87,0,0,1,10.81,2.21,28.24,28.24,0,0,1,14.85,14.86,26.94,26.94,0,0,1,2.22,10.91,27.9,27.9,0,0,1-.65,6.05l-.11.22h-27.44l-6.91-11H1276a16.11,16.11,0,0,0-5-7.46,12.56,12.56,0,0,0-8.27-2.91,13.12,13.12,0,0,0-5.51,1.18,14.19,14.19,0,0,0-7.45,7.91,16.22,16.22,0,0,0-1.08,6,14.65,14.65,0,0,0,1,5.11,15.53,15.53,0,0,0,2.81,4.79,16,16,0,0,0,4.43,3.61,11.7,11.7,0,0,0,5.83,1.45,16.82,16.82,0,0,0,5.35-.81,9.93,9.93,0,0,0,4.59-3.62l.11-.11.22.11,12.53,5.52-.21.22a27.06,27.06,0,0,1-9.89,8.5,28.17,28.17,0,0,1-32.58-5.05,28.46,28.46,0,0,1-6-8.86,27.67,27.67,0,0,1,0-21.72A28.08,28.08,0,0,1,1251.75,414,27.45,27.45,0,0,1,1262.71,411.78Z"/><path class="cls-1" d="M1340.4,434.58q3.55,1.19,6.53,2.43a22.73,22.73,0,0,1,5.19,3,12.34,12.34,0,0,1,3.46,4.16,12.54,12.54,0,0,1,1.24,5.78V450q0,8.21-5.46,12.85t-15.28,4.65a35.82,35.82,0,0,1-12.1-2.12,41.58,41.58,0,0,1-11.13-6.05l-.11-.11.11-.11,7.34-11.6.11.11a22,22,0,0,0,7.35,5.24,21.7,21.7,0,0,0,8.75,1.78q6.38,0,6.37-4.09a3.1,3.1,0,0,0-2-2.91,37,37,0,0,0-4.86-1.84,3.8,3.8,0,0,0-1-.26,4.3,4.3,0,0,1-1-.27q-3.24-.87-6.49-1.89a22,22,0,0,1-5.83-2.8,14.69,14.69,0,0,1-4.27-4.53,13.35,13.35,0,0,1-1.67-7.06v-.21a16.72,16.72,0,0,1,1.4-6.9,15.6,15.6,0,0,1,4-5.39,18.35,18.35,0,0,1,6.27-3.5,25.07,25.07,0,0,1,8.1-1.24,36.59,36.59,0,0,1,10.48,1.57,35.75,35.75,0,0,1,9.83,4.59v.21l-6.59,12-.11-.11a17.78,17.78,0,0,0-6.16-3.94,20.68,20.68,0,0,0-7.77-1.46,14.07,14.07,0,0,0-1.73.11,5,5,0,0,0-1.79.53,4.15,4.15,0,0,0-1.35,1.14,3.22,3.22,0,0,0-.54,2,2.4,2.4,0,0,0,.87,1.78,9.48,9.48,0,0,0,2.21,1.51,29.07,29.07,0,0,0,3,1.35c1.11.44,2.21.83,3.29,1.19a2.73,2.73,0,0,1,.71.11Z"/><path class="cls-1" d="M673.71,213.88a73,73,0,0,1-50.6,124.55H532.86V275.5h89.26a10,10,0,0,0,0-20.06H584.56a73,73,0,1,1,0-146h89.27v62.92H584.56a10.07,10.07,0,1,0,0,20.14h37.56a72.54,72.54,0,0,1,51.59,21.37Z"/><path class="cls-1" d="M952.87,109.6v229H889.94V326.3a114.49,114.49,0,1,1,0-204.42V109.6ZM838.38,275.66a51.58,51.58,0,1,0-51.57-51.58,51.63,51.63,0,0,0,51.57,51.58Z"/><path class="cls-1" d="M1333.89,210.05V338.6H1271V210.05a37.67,37.67,0,1,0-75.34,0V338.6h-62.93V210.05a37.68,37.68,0,1,0-75.35,0V338.58H994.41v-229h62.93v7.15A100.52,100.52,0,0,1,1164.16,137a100.54,100.54,0,0,1,169.73,73Z"/><path class="cls-1" d="M1596.62,182.77a114.49,114.49,0,0,1-158.41,143.39V473.44h-62.92v-364h62.92v12.29a114.46,114.46,0,0,1,158.41,61Zm-106.84,92.75a51.58,51.58,0,1,0-47.65-31.84,51.64,51.64,0,0,0,47.65,31.84Z"/><path class="cls-1" d="M1585.71,46.94l-6.54-9c-.15-.21-.37-.36,0-.62,3.27-2.27,4.46-5.53,4.26-9.35a9.26,9.26,0,0,0-4.71-8,12.51,12.51,0,0,0-6.19-1.66c-3.73-.06-7.45,0-11.17,0-.42,0-.51.12-.51.52q0,14.1,0,28.21c0,.47.16.52.56.52,1.69,0,3.37,0,5.06,0,.45,0,.59-.08.59-.57,0-2.31,0-4.62,0-6.93,0-.5.09-.67.63-.66,1.44,0,2.87,0,4.31,0a.91.91,0,0,1,.87.42c1.76,2.45,3.54,4.88,5.31,7.31a.78.78,0,0,0,.69.43c2.39,0,4.78,0,7.29,0C1586,47.26,1585.83,47.1,1585.71,46.94ZM1573.48,33a49.61,49.61,0,0,1-6.1.15c-.35,0-.34-.18-.34-.43V25c0-.21-.07-.48.31-.47a39.92,39.92,0,0,1,6.47.21c1.57.29,2.92,1,3.28,2.72C1577.77,30.49,1576.57,32.55,1573.48,33Z"/><path class="cls-1" d="M1603.76,34.49c0-.15-.06-.32.06-.46-.19.13-.12.32-.11.5v.25c0,.11,0,.22.11.25a.27.27,0,0,1-.06-.21Z"/><path class="cls-1" d="M1603.82,34V30.41c-.14-1.24-.18-2.48-.43-3.7a32.35,32.35,0,0,0-26.26-25.5c-1-.17-1.94-.14-2.9-.27h-4.87a.25.25,0,0,1-.17.06h0a23.57,23.57,0,0,0-7.26,1.36,32.42,32.42,0,0,0-20.5,20.26,29,29,0,0,0-1.52,7.88.13.13,0,0,0,0,.06,41.81,41.81,0,0,0,0,4.48,27.4,27.4,0,0,0,.45,4l.06.27a29.93,29.93,0,0,0,.94,3.58,31.79,31.79,0,0,0,9.58,14.35,32.12,32.12,0,0,0,10.4,6A33.12,33.12,0,0,0,1574,64.9a29.27,29.27,0,0,0,7.88-1.47,31.7,31.7,0,0,0,14.34-9.59,31.89,31.89,0,0,0,7.39-15.79c.14-.83.11-1.69.25-2.52V35c-.16,0-.12-.14-.11-.25v-.25C1603.7,34.35,1603.63,34.16,1603.82,34Zm-32.06,22A23.15,23.15,0,1,1,1595,33,23.12,23.12,0,0,1,1571.76,56.05Z"/><path class="cls-1" d="M1603.82,34v.5a.07.07,0,0,1-.06,0,.07.07,0,0,1,0,0C1603.7,34.35,1603.63,34.16,1603.82,34Z"/><path class="cls-1" d="M1603.82,34.53v.25a.07.07,0,0,1-.06,0s0,0,0,0v-.25h.11Z"/><path class="cls-1" d="M1603.82,34.78V35c-.16,0-.12-.14-.11-.25h.11Z"/><path class="cls-1" d="M1585.71,46.94l-6.54-9c-.15-.21-.37-.36,0-.62,3.27-2.27,4.46-5.53,4.26-9.35a9.26,9.26,0,0,0-4.71-8,12.51,12.51,0,0,0-6.19-1.66c-3.73-.06-7.45,0-11.17,0-.42,0-.51.12-.51.52q0,14.1,0,28.21c0,.47.16.52.56.52,1.69,0,3.37,0,5.06,0,.45,0,.59-.08.59-.57,0-2.31,0-4.62,0-6.93,0-.5.09-.67.63-.66,1.44,0,2.87,0,4.31,0a.91.91,0,0,1,.87.42c1.76,2.45,3.54,4.88,5.31,7.31a.78.78,0,0,0,.69.43c2.39,0,4.78,0,7.29,0C1586,47.26,1585.83,47.1,1585.71,46.94ZM1573.48,33a49.61,49.61,0,0,1-6.1.15c-.35,0-.34-.18-.34-.43V25c0-.21-.07-.48.31-.47a39.92,39.92,0,0,1,6.47.21c1.57.29,2.92,1,3.28,2.72C1577.77,30.49,1576.57,32.55,1573.48,33Z"/><path class="cls-1" d="M1585.71,46.94l-6.54-9c-.15-.21-.37-.36,0-.62,3.27-2.27,4.46-5.53,4.26-9.35a9.26,9.26,0,0,0-4.71-8,12.51,12.51,0,0,0-6.19-1.66c-3.73-.06-7.45,0-11.17,0-.42,0-.51.12-.51.52q0,14.1,0,28.21c0,.47.16.52.56.52,1.69,0,3.37,0,5.06,0,.45,0,.59-.08.59-.57,0-2.31,0-4.62,0-6.93,0-.5.09-.67.63-.66,1.44,0,2.87,0,4.31,0a.91.91,0,0,1,.87.42c1.76,2.45,3.54,4.88,5.31,7.31a.78.78,0,0,0,.69.43c2.39,0,4.78,0,7.29,0C1586,47.26,1585.83,47.1,1585.71,46.94ZM1573.48,33a49.61,49.61,0,0,1-6.1.15c-.35,0-.34-.18-.34-.43V25c0-.21-.07-.48.31-.47a39.92,39.92,0,0,1,6.47.21c1.57.29,2.92,1,3.28,2.72C1577.77,30.49,1576.57,32.55,1573.48,33Z"/></g></g></svg>