<?xml version="1.0" standalone="no"?>
<!DOCTYPE svg PUBLIC "-//W3C//DTD SVG 1.0//EN" "http://www.w3.org/TR/2001/REC-SVG-20010904/DTD/svg10.dtd">
<svg xmlns="http://www.w3.org/2000/svg" xmlns:xlink="http://www.w3.org/1999/xlink" id="body_1" width="287" height="215">

<g transform="matrix(0.17889646 0 0 0.17889646 -0 63.747295)">
	<g>
		<g>
			<g>
                <path d="M165.74 354.05L164.74 353.34998L164.40001 353.11C 163.64001 352.55 162.89001 351.99 162.14001 351.40997C 161.90001 351.22998 161.66002 351.05 161.44002 350.86C 160.82002 350.38998 160.21002 349.86 159.61002 349.41998C 159.41002 349.27 159.22002 349.12 159.04001 348.96C 158.49 348.52 157.94 348.06 157.40001 347.6L157.40001 347.6L156.62001 346.94C 155.28001 345.81 153.97002 344.64 152.69002 343.45L152.69002 343.45L150.77002 341.64L150.67001 341.54L149.29001 340.19C 149.13669 340.05002 148.98668 339.90002 148.84001 339.74C 148.69334 339.58 148.14334 339 147.19002 338C 146.80002 337.59 146.41002 337.17 146.03001 336.74C 145.65001 336.30997 145.34001 335.99 145.03001 335.61C 144.72002 335.22998 144.11002 334.61 143.65001 334.03998L143.65001 334.03998L140.84 331C 139.94 329.93 139.06 328.84 138.2 327.74C 137.91 327.38998 137.62999 327.03 137.36 326.66998C 137.09001 326.30997 136.61 325.66998 136.24 325.18997C 135.87001 324.70996 135.32 323.94998 134.86 323.30997C 134.4 322.66995 134.07 322.20996 133.69 321.64996C 133.31 321.08997 132.75 320.28998 132.29001 319.58997C 132.12001 319.34998 131.95001 319.10995 131.79001 318.85995L131.79001 318.85995L131.65001 318.63995L131.01001 317.63995C 130.97418 317.59012 130.944 317.53644 130.92001 317.47995C 130.56001 316.93994 130.21 316.39996 129.92001 315.83994C 129.84001 315.68994 129.74002 315.52994 129.65001 315.37994C 129.48036 315.1349 129.32349 314.8812 129.18001 314.61993C 128.90002 314.17328 128.62003 313.71326 128.34001 313.23993L128.34001 313.23993L128.24 313.06992C 127.42001 311.70325 126.63335 310.3166 125.880005 308.9099C 125.47 308.1799 125.08 307.44992 124.700005 306.69992C 124.32001 305.94992 123.96001 305.25992 123.600006 304.5299C 123.59462 304.50354 123.59462 304.47632 123.600006 304.44992C 123.47001 304.1899 123.340004 303.91992 123.200005 303.64993C 122.97 303.17993 122.740005 302.64993 122.520004 302.21994C 122.16 301.46994 121.810005 300.70993 121.47 299.94995L121.47 299.94995L120.54 297.83997L120.24 297.12997C 119.85 296.19998 119.46 295.27 119.09 294.31998C 119 294.11 118.92 293.88998 118.829994 293.66998C 118.73999 293.44998 118.759995 293.47998 118.729996 293.38998C 118.369995 292.47998 118.02 291.55 117.729996 290.62C 117.53 290.1 117.34 289.57 117.17 289.03C 116.79 287.97 116.439995 286.91 116.1 285.83C 115.939995 285.37 115.799995 284.91998 115.67 284.46C 115.54 284 115.299995 283.27 115.13 282.66998C 114.96 282.06998 114.79 281.52997 114.64 280.96C 114.409996 280.16998 114.2 279.37 114 278.56L114 278.56L114 278.46C 113.79 277.66 113.59 276.84 113.4 276.02C 113.21001 275.19998 113.020004 274.41998 112.85 273.61L112.85 273.61L112.85 273.46997C 112.67 272.64996 112.5 271.82996 112.34 270.99997C 112.17999 270.16998 112.03999 269.45996 111.899994 268.68997C 111.899994 268.61996 111.899994 268.53998 111.899994 268.46997C 111.759995 267.66998 111.619995 266.86996 111.49999 266.05997C 111.49435 265.98672 111.49435 265.91318 111.49999 265.83997C 111.38999 265.13995 111.27999 264.42996 111.189995 263.70996C 111.189995 263.58997 111.189995 263.47995 111.189995 263.34998C 111.079994 262.52997 110.95999 261.69998 110.869995 260.86L110.869995 260.86L110.81 260.36C 110.729996 259.63998 110.649994 258.9 110.579994 258.16998L110.579994 258.16998L110.49 257.11L110.49 256.81998L110.43 256.12997C 110.43 255.70998 110.36 255.27997 110.33 254.84998C 110.3 254.41998 110.270004 253.99997 110.240005 253.57997C 110.21001 253.15997 110.240005 252.76997 110.170006 252.36996C 110.170006 251.67996 110.100006 250.98996 110.07001 250.28996C 110.04001 249.58997 110.07001 249.04996 110.01001 248.42996C 110.01001 248.11996 110.01001 247.79996 110.01001 247.48996C 110.01001 246.64996 110.01001 245.81996 110.01001 244.96996C 110.01001 244.28996 110.01001 243.61995 110.01001 242.96996C 110.01001 242.53996 110.01001 242.10995 110.01001 241.66995C 110.01001 241.22995 110.01001 240.66995 110.01001 240.19995C 110.01001 239.39995 110.07001 238.60995 110.12001 237.80995C 110.12001 237.31995 110.12001 236.80995 110.20001 236.33995C 110.280014 235.86995 110.26001 235.43996 110.30001 234.98994C 110.34001 234.53993 110.38001 233.86995 110.43001 233.30995C 110.48 232.74995 110.54001 232.18996 110.59001 231.62996C 110.640015 231.06996 110.72001 230.37996 110.780014 229.75996L110.780014 229.75996L110.960014 228.27997C 110.960014 227.93997 111.040016 227.60997 111.09001 227.27997C 111.18001 226.59998 111.280014 225.90997 111.38001 225.21997C 111.45001 224.76997 111.51001 224.31998 111.58001 223.86996L111.58001 223.86996L111.58001 223.69997C 111.70001 222.95996 111.83001 222.21997 111.96001 221.47997C 112.090004 220.73996 112.240005 219.95996 112.39001 219.18997C 112.443344 218.87665 112.50335 218.56665 112.57001 218.25998C 112.57001 217.99998 112.670006 217.73997 112.73001 217.47998C 112.790016 217.21999 112.88001 216.73997 112.97001 216.37997C 113.12001 215.65997 113.28001 214.94998 113.45001 214.22998C 113.62002 213.50998 113.73001 213.05998 113.87001 212.46999C 113.97001 212.08998 114.07001 211.71999 114.16001 211.33998C 114.16001 211.27998 114.16001 211.21999 114.210014 211.14998C 114.30001 210.82997 114.38001 210.51997 114.47002 210.14998C 114.56002 209.77998 114.640015 209.53998 114.73002 209.21999C 114.82002 208.9 114.96002 208.36998 115.09002 207.93999C 115.22002 207.51 115.290016 207.20999 115.40002 206.84999C 115.51002 206.48999 115.530014 206.37999 115.610016 206.15C 115.64126 206.0614 115.66796 205.97128 115.69002 205.87999C 115.77002 205.62 115.85002 205.37 115.92002 205.12999C 116.11002 204.49998 116.31002 203.87999 116.52002 203.24998C 116.65002 202.82999 116.80002 202.41998 116.94002 201.99998C 117.01002 201.79999 117.070015 201.58998 117.15002 201.38998C 117.23002 201.18999 117.290016 200.95999 117.37002 200.73999C 117.45002 200.51999 117.53002 200.29999 117.610016 200.06999L117.610016 200.06999L117.91002 199.23999L118.03002 198.9C 118.400024 197.9 118.78002 196.9 119.190025 195.84C 119.440025 195.2 119.70003 194.56999 119.96002 193.94L119.96002 193.94L120.400024 192.94C 120.400024 192.83 120.49002 192.71 120.550026 192.6C 120.71003 192.18001 120.89002 191.77 121.07002 191.36C 121.25002 190.95 121.510025 190.36 121.74002 189.87C 121.97002 189.37999 122.18002 188.87 122.41002 188.4C 122.87002 187.4 123.35002 186.4 123.83002 185.47C 123.960014 185.19 124.110016 184.9 124.250015 184.62L124.250015 184.62L124.37002 184.39C 124.62002 183.88 124.88002 183.39 125.140015 182.9C 125.85001 181.54 126.59001 180.2 127.34001 178.9L127.34001 178.9L128.34001 177.09C 128.76001 176.37 129.19002 175.65 129.63 174.95C 124.4 163.76999 121.93001 154.23 122.630005 147.05L122.630005 147.05L122.380005 147.36C 121.840004 148.03 121.3 148.72 120.770004 149.36C 119.93001 150.45 119.100006 151.53 118.3 152.63C 117.86 153.21 117.44 153.79001 117.020004 154.38C 115.82001 156.04001 114.670006 157.73001 113.55 159.44L113.55 159.44L112.64 160.82C 111.58667 162.46002 110.56334 164.12668 109.57 165.82C 109.06 166.67001 108.57 167.55 108.07 168.42001C 107.57 169.29002 107.2 169.95001 106.79 170.73001L106.79 170.73001L106.79 170.78001L106.15 171.97002C 105.15 173.77002 104.26 175.61002 103.37 177.46002C 102.96 178.30002 102.560005 179.16002 102.170006 180.02002C 101.78001 180.88002 101.40001 181.71002 101.03001 182.56001C 101.02315 182.57942 101.02315 182.6006 101.03001 182.62001C 100.86001 183.00002 100.700005 183.39001 100.53001 183.78001C 99.76001 185.57 99.03001 187.36002 98.340004 189.18001C 98.04 189.93001 97.76 190.68001 97.48 191.44C 96.65 193.73 95.86 196.05 95.130005 198.44C 94.97 198.90001 94.83 199.37 94.700005 199.84L94.700005 199.84L94.19 201.51999C 94.03 202.07999 93.87 202.63998 93.72 203.19998C 93.57 203.75998 93.42 204.26999 93.28 204.80998C 93.03 205.80998 92.78 206.73997 92.54 207.70998C 92.47 207.93997 92.42 208.16998 92.36 208.40997C 92.13 209.35997 91.91 210.31998 91.7 211.27997C 91.579994 211.82997 91.46999 212.36996 91.35 212.90997C 91.23 213.44998 91.13 213.90997 91.03 214.45998C 91.03 214.52998 91.03 214.59998 91.03 214.65997C 90.93 215.17998 90.83 215.65997 90.74 216.19997C 90.07333 219.8533 89.51667 223.54665 89.07 227.27997C 89 227.88997 88.93 228.50996 88.87 229.12997L88.87 229.12997L88.66 231.29997C 88.66 231.88997 88.57001 232.47997 88.520004 233.06998C 88.47 233.65999 88.44 234.16998 88.41 234.70998C 88.380005 235.24997 88.33 235.84998 88.3 236.42998C 88.270004 237.00998 88.3 237.49998 88.23 238.04997C 88.23 238.37997 88.23 238.70998 88.23 239.04997C 88.23 239.38997 88.23 239.72997 88.23 240.04997C 88.23 240.55997 88.23 241.04997 88.23 241.58997C 88.23 242.73996 88.23 243.89996 88.23 245.05997C 88.23 247.05997 88.23 249.05997 88.340004 251.05997C 88.340004 252.32997 88.450005 253.59996 88.53001 254.86996C 88.69667 257.5833 88.93334 260.26996 89.240005 262.92996C 89.32001 263.57996 89.39001 264.22995 89.48 264.87997C 89.57 265.53 89.61 265.92996 89.69 266.44998C 89.770004 266.97 89.86 267.71997 89.97 268.34998C 90.08 268.97998 90.16 269.61996 90.26 270.25998C 90.33 270.69998 90.4 271.15 90.48 271.59998C 90.73 273.03998 91 274.47998 91.29 275.89996C 91.41 276.52997 91.54 277.14996 91.68 277.76996C 91.82 278.38995 91.94 279.00995 92.08 279.62994C 92.36 280.86993 92.65 282.10995 92.97 283.31995C 93.12 283.92993 93.28 284.54996 93.44 285.15994C 93.926674 286.9933 94.44667 288.80997 95 290.60995C 95.36 291.79996 95.74 292.99997 96.14 294.18994C 96.35 294.83994 96.57 295.48993 96.8 296.12994L96.8 296.12994L97.37 297.72995C 97.79 298.90994 98.22 300.07996 98.68 301.23996C 98.9 301.81998 99.130005 302.39996 99.37 302.97995C 99.590004 303.55994 99.83 304.13995 100.07 304.70996C 100.31 305.27997 100.61 306.00995 100.9 306.70996C 101.1 307.19995 101.32 307.70996 101.54 308.16995C 101.76 308.62994 102.05 309.30997 102.3 309.86996C 102.55 310.42996 102.83 310.99997 103.08 311.55997C 103.33 312.11996 103.61 312.67996 103.89 313.23996C 104.17 313.79996 104.43 314.33997 104.72 314.89996C 105.01 315.45996 105.270004 315.99997 105.55 316.54996C 105.83 317.09995 106.12 317.64996 106.420006 318.18997C 106.72001 318.72998 107.12 319.50998 107.490005 320.18997C 107.72001 320.61 107.96001 321.02997 108.200005 321.44998C 108.44 321.87 108.79 322.52997 109.11001 323.05997L109.11001 323.05997L110.05001 324.64996C 110.43001 325.29996 110.82001 325.95996 111.23001 326.58997C 111.47001 326.99997 111.72001 327.39996 111.97001 327.79996C 112.65001 328.87994 113.34001 329.95996 114.04001 331.00995L114.04001 331.00995L114.70001 332.00995L116.140015 334.11993C 116.52001 334.66992 116.90002 335.21994 117.290016 335.75995C 117.84002 336.53995 118.41002 337.30994 118.98002 338.06995C 119.55002 338.82996 120.12002 339.59995 120.71002 340.34995L120.71002 340.34995L121.510025 341.34995C 122.27003 342.34995 123.04002 343.26996 123.82002 344.21994C 124.98003 345.63995 126.18002 347.03995 127.400024 348.40994L127.400024 348.40994L128.57002 349.70993L129.88002 351.12994C 130.28001 351.56995 130.71002 352.01996 131.13002 352.46994L131.13002 352.46994L132.40002 353.78995L132.82002 354.20996C 132.98311 354.39642 133.15672 354.57336 133.34003 354.73996L133.34003 354.73996L133.54002 354.94995C 133.79002 355.21994 134.06003 355.47995 134.32002 355.73996L134.32002 355.73996L134.51003 355.90997C 134.9107 356.2711 135.33498 356.60516 135.78003 356.90997C 142.30003 361.30997 153.38004 360.38998 167.45003 355.05C 166.57 354.65 166.15 354.35 165.74 354.05zM399.4 239C 399.4 237.73 399.29 236.47 399.21 235.19C 399.04333 232.47667 398.80667 229.79001 398.5 227.13C 398.42 226.48001 398.35 225.83 398.26 225.13C 398.17 224.43001 398.13 224.13 398.05002 223.56C 397.97003 222.98999 397.88 222.29 397.78003 221.65C 397.68005 221.01 397.59003 220.39 397.48004 219.75C 397.42004 219.31 397.34003 218.86 397.26004 218.41C 397.02005 216.97 396.74005 215.53 396.46005 214.11L396.46005 214.11L396.07004 212.24C 395.93002 211.62001 395.80005 211 395.66003 210.38C 395.38004 209.14 395.09003 207.90001 394.77002 206.68001C 394.62003 206.08 394.46002 205.46 394.30002 204.85C 393.8067 203.01668 393.28668 201.20001 392.74002 199.40001C 392.38004 198.21 392.00003 197.01001 391.6 195.82C 391.39 195.16 391.17 194.52 390.94 193.88L390.94 193.88L390.37 192.27C 389.94998 191.1 389.52 189.93001 389.06 188.77C 388.84 188.19 388.61 187.61 388.38 187.03C 388.15002 186.45 387.91 185.87 387.67 185.3C 387.43002 184.73001 387.13 184 386.85 183.3C 386.64 182.81 386.42 182.3 386.2 181.84C 385.98 181.37999 385.7 180.7 385.44 180.14L385.44 180.14L384.66 178.45C 384.39 177.89 384.13 177.33 383.85 176.77C 383.57 176.21 383.31 175.67 383.03 175.11C 382.75 174.55 382.47 174 382.19 173.46C 381.91 172.92001 381.62 172.36 381.32 171.82C 381.02002 171.28001 380.62 170.49 380.25 169.82L380.25 169.82L379.55 168.56001C 379.25 168.02002 378.94998 167.48001 378.62997 166.95001C 378.30997 166.42001 378.00998 165.89001 377.68997 165.36002C 377.36996 164.83002 376.91998 164.05002 376.50998 163.42001C 376.27 163.01001 376.02 162.61002 375.77 162.21C 374.66998 160.45001 373.53333 158.71667 372.36 157.01001C 371.56998 155.87001 370.78 154.74 369.97998 153.63C 369.58 153.07 369.16998 152.5 368.74997 151.95001L368.74997 151.95001L368.67996 151.87001C 368.28995 151.34001 367.88995 150.87001 367.48996 150.3L367.48996 150.3L366.22995 148.66C 365.46994 147.66 364.69995 146.75 363.91995 145.8C 362.75995 144.38 361.55997 142.98 360.33997 141.61L360.33997 141.61L359.16995 140.31C 358.73996 139.83 358.29996 139.37 357.86996 138.89L357.86996 138.89L356.60995 137.55L355.33997 136.23C 355.18997 136.06999 355.02997 135.90999 354.86996 135.76L354.86996 135.76L354.19995 135.06999L353.40994 134.28L353.21994 134.11C 352.81927 133.74887 352.39502 133.4148 351.94995 133.11C 345.42996 128.71 334.34995 129.62 320.27994 134.97C 320.43994 135.09 320.62994 135.21 320.78995 135.34C 321.35995 135.73999 321.91995 136.12999 322.47995 136.54C 323.34995 137.17 324.21994 137.81999 325.07996 138.48L325.07996 138.48L325.57996 138.86C 326.25995 139.39 326.94995 139.93001 327.57996 140.47L327.57996 140.47L328.20996 140.97L329.42996 141.97L330.50995 142.88C 330.5357 142.90076 330.5592 142.92422 330.57996 142.95001C 331.08997 143.39001 331.57996 143.83002 332.10995 144.29001C 332.85995 144.94 333.58997 145.59001 334.29996 146.29001C 335.00995 146.99 335.46997 147.37001 336.04996 147.92001L336.04996 147.92001L336.11996 147.99002C 336.71997 148.56003 337.30997 149.14001 337.89996 149.73003C 338.14996 149.96002 338.38995 150.19003 338.61996 150.44003C 339.16995 150.99004 339.71997 151.55003 340.25998 152.12003C 341.15 153.05002 342.02997 153.98003 342.87997 154.93002C 343.20996 155.29002 343.53998 155.65002 343.87997 156.02002C 344.21997 156.39001 344.64996 156.89001 345.02997 157.33002L345.02997 157.33002L345.25998 157.59001L345.83 158.26001C 346.06998 158.54001 346.31 158.82 346.53998 159.11002C 347.11 159.78001 347.65997 160.46002 348.21 161.11002C 348.59 161.58002 348.96 162.11002 349.34 162.54001C 349.88 163.22 350.4 163.93001 350.94 164.63C 350.95645 164.66222 350.9766 164.69241 351 164.72C 351.42 165.29001 351.85 165.86 352.26 166.43001L352.26 166.43001L353.55002 168.25002L354.96002 170.25002C 355.42 170.94002 355.88004 171.63002 356.32 172.33002C 356.75998 173.03001 357.21002 173.72002 357.65 174.43002C 358.08997 175.14003 358.52 175.85002 358.94998 176.57002C 358.94998 176.62003 359.00998 176.68002 359.05 176.74002C 359.44 177.38002 359.81998 178.04002 360.19 178.74002C 360.56003 179.44002 361.01 180.20003 361.41 180.93002C 361.81 181.66002 362.2 182.40002 362.59 183.15002L362.59 183.15002L363.3 184.54002C 363.44998 184.83002 363.59 185.11003 363.72998 185.40002C 364.09998 186.14003 364.44998 186.88002 364.80997 187.63002C 364.84537 187.68367 364.87552 187.7406 364.89996 187.80002L364.89996 187.80002L365.89996 189.90002C 366.32996 190.83002 366.72995 191.78003 367.12997 192.72003C 367.38998 193.32004 367.63998 193.91003 367.87997 194.51003C 367.87997 194.64003 367.97998 194.77002 368.02997 194.89003C 368.23996 195.42003 368.44998 195.94003 368.64996 196.46004C 368.75995 196.73004 368.85995 196.99004 368.95996 197.27003C 369.20996 197.92003 369.44995 198.56003 369.67996 199.27003C 369.91995 199.90004 370.14996 200.54004 370.35995 201.19003L370.35995 201.19003L370.51996 201.64003C 370.66995 202.09003 370.80997 202.53003 370.95996 202.96004L370.95996 202.96004L371.31995 204.05003C 371.56995 204.86003 371.82996 205.66003 372.06995 206.47003L372.06995 206.47003L372.76996 208.91003C 372.99997 209.71004 373.21997 210.51004 373.41995 211.32004L373.41995 211.32004L373.41995 211.41003C 373.61996 212.22003 373.81995 213.04004 374.00995 213.86003C 374.19995 214.68002 374.38995 215.46004 374.56995 216.27003L374.56995 216.27003L374.56995 216.41003C 374.74994 217.23004 374.92993 218.05003 375.08994 218.88004C 375.24994 219.71004 375.37994 220.42003 375.51993 221.19003C 375.51993 221.26004 375.51993 221.34003 375.51993 221.41003C 375.66992 222.21004 375.79993 223.01004 375.91992 223.82004C 375.92645 223.89322 375.92645 223.96686 375.91992 224.04004C 376.0299 224.74004 376.13992 225.45004 376.22992 226.17004C 376.22992 226.29004 376.22992 226.40004 376.22992 226.53004C 376.3399 227.35005 376.45993 228.18004 376.54993 229.02005L376.54993 229.02005L376.60992 229.52005C 376.69992 230.24005 376.76993 230.98006 376.83994 231.71005C 376.83994 232.04005 376.90994 232.38005 376.92993 232.71005C 376.92993 232.89005 376.92993 233.06006 376.92993 233.23006C 376.92993 233.40005 376.92993 233.56006 376.97992 233.73006C 376.97992 234.16005 377.04993 234.59006 377.06992 235.01006C 377.0899 235.43005 377.1299 235.87006 377.1599 236.29005C 377.1899 236.71005 377.2199 237.10005 377.2399 237.50006L377.2399 237.50006L377.3299 239.58006C 377.3299 240.19006 377.37988 240.82007 377.3899 241.44006C 377.3899 241.75006 377.3899 242.07007 377.3899 242.38007C 377.3899 243.22006 377.3899 244.05006 377.3899 244.90007C 377.3899 245.57007 377.3899 246.25008 377.3899 246.90007C 377.3899 247.34007 377.3899 247.77007 377.3899 248.21007C 377.3899 248.65007 377.3899 249.21007 377.3899 249.68007C 377.3899 250.48007 377.3299 251.27007 377.2899 252.07007L377.2899 252.07007L377.1999 253.54007C 377.1999 253.99007 377.1399 254.44006 377.09988 254.89008C 377.05988 255.34009 377.0199 256.01007 376.96988 256.57007C 376.91986 257.13007 376.86987 257.69006 376.80988 258.25006C 376.74988 258.81006 376.68988 259.50006 376.61987 260.12006L376.61987 260.12006L376.43988 261.60007C 376.3599 262.27008 376.26987 262.95007 376.1699 263.60007L376.1699 263.60007L376.1699 263.79007C 376.0699 264.54007 375.96988 265.29007 375.8399 266.04007C 375.83435 266.08658 375.83435 266.13358 375.8399 266.18008C 375.7199 266.92007 375.5999 267.6601 375.4599 268.4001C 375.4599 268.46008 375.4599 268.5301 375.4599 268.58008C 375.3399 269.29343 375.2099 269.9934 375.0699 270.68008C 375.0699 270.8501 375.0099 271.01007 374.9799 271.17007C 374.9499 271.33008 374.90988 271.46008 374.87988 271.6201C 374.84988 271.7801 374.7599 272.23007 374.68988 272.55008C 374.61987 272.8701 374.54987 273.18008 374.48987 273.5001C 374.32986 274.2201 374.16986 274.93008 373.99988 275.6501L373.99988 275.6501L373.57986 277.4001L373.23987 278.73007C 373.14987 279.05008 373.06985 279.36008 372.97986 279.73007L372.97986 279.73007L372.91986 279.99008C 372.76987 280.5601 372.59985 281.1201 372.43985 281.68008C 372.41187 281.7654 372.3885 281.8522 372.36984 281.9401C 372.22983 282.4201 372.09985 282.9401 371.95984 283.3801L371.95984 283.3801L371.75983 284.0001L371.75983 284.1201C 371.68982 284.3401 371.62982 284.5401 371.5598 284.7501C 371.3698 285.3801 371.15982 286.0101 370.9598 286.6301C 370.7598 287.2501 370.5498 287.8701 370.3298 288.49008C 370.2598 288.71008 370.1898 288.92007 370.1098 289.14008C 370.02982 289.36008 369.9498 289.58008 369.8798 289.8101C 369.80978 290.0401 369.67978 290.36008 369.5698 290.64008C 369.2698 291.48007 368.9598 292.33008 368.6298 293.17007C 368.39978 293.75006 368.17978 294.32007 367.9498 294.89008C 367.71982 295.46008 367.3798 296.2801 367.0798 296.99008C 366.77982 297.70007 366.5998 298.1301 366.3498 298.70007L366.3498 298.70007L365.7398 300.05008C 365.5198 300.54007 365.2998 301.05008 365.0698 301.5301L365.0698 301.5301L364.2898 303.1601C 364.0798 303.6001 363.86978 304.0301 363.64978 304.46008C 363.42978 304.89008 363.29977 305.18008 363.10977 305.54007C 362.82977 306.09006 362.54977 306.64008 362.2498 307.19006C 361.79977 308.06006 361.33978 308.92007 360.86978 309.76007C 360.39978 310.60007 359.92978 311.45007 359.4398 312.28006C 359.17978 312.73007 358.9198 313.16006 358.64978 313.60007C 358.37976 314.04007 358.08978 314.54007 357.80978 315.01007C 363.0298 326.19006 365.4998 335.73007 364.80978 342.9001L364.80978 342.9001L365.05978 342.6001L366.67978 340.6001C 367.50977 339.5101 368.33978 338.43008 369.14978 337.3301C 369.57977 336.75012 369.9998 336.1701 370.41977 335.5801C 371.61978 333.9101 372.76978 332.2301 373.88977 330.5201C 374.18976 330.0701 374.49976 329.6001 374.79977 329.1301C 375.85977 327.5001 376.86978 325.8401 377.86978 324.1301C 378.38977 323.2801 378.86978 322.4001 379.36978 321.5301C 379.86978 320.6601 380.23978 320.0001 380.6598 319.2201L380.6598 319.2201L380.6598 319.1701L381.2898 317.9801C 382.2898 316.1801 383.1798 314.3401 384.0798 312.4901C 384.4898 311.6401 384.8898 310.7901 385.2698 309.9301C 385.6498 309.07013 386.0398 308.2401 386.4198 307.3901C 386.42413 307.37033 386.42413 307.34988 386.4198 307.3301C 386.5998 306.9501 386.7598 306.56012 386.9198 306.1701C 387.6898 304.3801 388.4198 302.59012 389.1098 300.7701C 389.4098 300.0201 389.6898 299.2701 389.9698 298.5101C 390.80978 296.2201 391.58978 293.90012 392.32977 291.5101C 392.47977 291.0401 392.61978 290.5801 392.7498 290.1101C 392.9698 289.4301 393.1698 288.7401 393.36978 288.0401C 393.49646 287.61343 393.61646 287.18344 393.72977 286.7501C 393.88977 286.2201 394.02975 285.6701 394.16977 285.1401C 394.42978 284.1401 394.66977 283.2101 394.90976 282.2401C 394.97977 282.0101 395.03976 281.78012 395.08975 281.5401C 395.31976 280.5901 395.53976 279.6301 395.74976 278.6701C 395.86975 278.12012 395.98975 277.5801 396.09976 277.0301C 396.20978 276.48007 396.31976 276.0301 396.41977 275.49008C 396.41977 275.42007 396.41977 275.35007 396.41977 275.29007C 396.52975 274.77008 396.61978 274.29007 396.71976 273.75006C 397.38644 270.09674 397.93976 266.4034 398.37976 262.67007C 398.45975 262.05008 398.51978 261.44006 398.57977 260.82007L398.57977 260.82007L398.78976 258.65005C 398.83975 258.06006 398.87976 257.46005 398.92978 256.87006C 398.93472 256.77676 398.93472 256.68332 398.92978 256.59006C 398.92978 256.13007 399.00977 255.69006 399.01978 255.24005C 399.0298 254.79004 399.09976 254.10005 399.12976 253.52005C 399.15976 252.94005 399.18976 252.45004 399.20975 251.90005C 399.20975 251.57005 399.20975 251.24005 399.20975 250.90005C 399.20975 250.56006 399.20975 250.22006 399.20975 249.90005C 399.20975 249.39006 399.20975 248.90005 399.20975 248.36006C 399.20975 247.21007 399.20975 246.05006 399.20975 244.89006C 399.4166 242.96336 399.48 241.00002 399.4 239zM352 323.85L351.95 323.94L351.51 324.54C 351.03 325.18002 350.56 325.82 350.06 326.46002L350.06 326.46002L349.52 327.16003C 349.05 327.77002 348.56998 328.38004 348.08 328.98004L348.08 328.98004L347.62 329.55005C 347.28 329.98004 346.93 330.41003 346.57 330.83005L346.57 330.83005L345.57 331.98004C 344.37668 333.3667 343.16003 334.7267 341.92 336.06003L341.92 336.06003L340.87003 337.19003L340.57004 337.51004C 339.99005 338.11005 339.42004 338.70004 338.83005 339.29004C 338.68005 339.45004 338.53006 339.59003 338.38004 339.73004C 338.2951 339.82498 338.205 339.9151 338.11005 340.00003C 337.64005 340.48004 337.16003 341.00003 336.67004 341.42004C 336.18005 341.84006 335.52005 342.53003 334.93005 343.07004L334.93005 343.07004L333.67004 344.23004C 333.30005 344.58005 332.92004 344.91003 332.54004 345.23004C 332.16003 345.55005 331.67004 346.00003 331.22003 346.38004C 330.77002 346.76004 330.61005 346.91003 330.29004 347.17004L330.29004 347.17004L329.62003 347.75003L329.42 347.91003C 328.76 348.47003 328.09003 349.01004 327.42 349.55005C 326.27002 350.48004 325.09003 351.40005 323.91 352.28006L323.91 352.28006L323.82 352.35007L322.06 353.63007C 321.47 354.06006 320.88 354.48007 320.28 354.89008C 319.61334 355.3701 318.94666 355.8401 318.28 356.30008C 317.63998 356.73007 317.02 357.1501 316.37 357.57007L316.37 357.57007L316.21 357.67007C 315.54333 358.1234 314.84332 358.56342 314.11 358.99008L314.11 358.99008L312.77 359.82007L311.97 360.29007L311.8 360.40005C 311.15 360.79007 310.5 361.17004 309.8 361.54007L309.8 361.54007L309.46 361.74008L307.62 362.74008L305.37 364L305.19998 364.1C 304.78998 364.31 304.37997 364.52002 303.96997 364.71C 303.71997 364.85 303.45996 364.97 303.18997 365.1L303.18997 365.1L303.11996 365.1L302.31998 365.5C 301.83997 365.74 301.36 365.97 300.87997 366.19L300.87997 366.19L300.70996 366.27C 300.00995 366.59998 299.31995 366.93 298.60995 367.27C 297.89996 367.61 297.21994 367.9 296.49997 368.19998L296.49997 368.19998L295.79996 368.50998L293.61996 369.4L292.33997 369.91L292.04996 370.02L290.64996 370.56L289.29996 371.05C 288.65994 371.28998 288.01996 371.52 287.37994 371.72998L287.37994 371.72998L286.91995 371.88998C 286.47995 372.03998 286.04996 372.19998 285.59995 372.33L285.59995 372.33L285.30994 372.41998L284.50995 372.68997L282.07996 373.43997C 281.26996 373.68997 280.46997 373.92996 279.63995 374.13998C 278.80994 374.35 278.02997 374.58 277.23996 374.78998L277.23996 374.78998L277.13995 374.78998C 276.31995 374.99997 275.51996 375.19998 274.69995 375.38998C 273.87994 375.58 273.08997 375.77 272.27994 375.93997C 272.23343 375.94565 272.18643 375.94565 272.13992 375.93997L272.13992 375.93997L269.67993 376.44998L267.36993 376.88998L267.13992 376.88998C 266.33994 377.03 265.54993 377.15997 264.73993 377.28L264.73993 377.28L264.51993 377.28C 263.80994 377.4 263.0999 377.5 262.38992 377.6L262.38992 377.6L262.02994 377.6C 261.19662 377.72 260.36664 377.83002 259.53995 377.93L259.53995 377.93L259.02994 377.97998C 258.30994 378.06998 257.57993 378.15 256.84995 378.21L256.84995 378.21L255.84995 378.31L254.84995 378.4L253.56995 378.5C 253.13995 378.5 252.71994 378.55 252.29994 378.58L252.29994 378.58L251.08994 378.65997C 250.39993 378.65997 249.69994 378.72998 249.00993 378.74997C 248.31993 378.76996 247.75993 378.79996 247.14993 378.80997L247.14993 378.80997L246.19994 378.80997C 245.36993 378.80997 244.51994 378.80997 243.68994 378.80997L243.68994 378.80997L241.68994 378.80997C 241.24994 378.80997 240.82994 378.80997 240.38994 378.80997L240.38994 378.80997L238.91994 378.80997C 238.11993 378.80997 237.32994 378.75998 236.52994 378.70996L236.52994 378.70996L235.05994 378.61996C 234.60994 378.61996 234.14993 378.56998 233.70993 378.52997C 231.44994 378.36996 229.21992 378.13995 226.99992 377.85995C 226.31993 377.78995 225.64992 377.68994 224.99992 377.59995L224.99992 377.59995L224.80992 377.59995L222.56992 377.26996L222.42992 377.26996L220.19992 376.88995L220.01993 376.88995L217.91992 376.48996L217.43993 376.39996L216.98993 376.30997L216.05994 376.11996L215.10994 375.90997C 214.38994 375.75998 213.66994 375.59998 212.95995 375.41998L212.95995 375.41998L211.19995 375.00998L209.87994 374.65997C 209.55994 374.58997 209.22995 374.48996 208.87994 374.40997L208.87994 374.40997L208.60994 374.33997C 208.32994 374.25998 208.03993 374.18997 207.76994 374.09998L207.76994 374.09998L206.66994 373.78998L205.56993 373.47998L205.22993 373.37997L204.87993 373.27L204.48993 373.15L203.84993 372.94998C 202.59993 372.55997 201.34993 372.15 200.11993 371.72998L200.11993 371.72998L198.79993 371.27C 198.51993 371.18 198.23993 371.08 197.96992 370.97L197.96992 370.97L195.43993 370.03C 194.85992 369.8 194.28993 369.58 193.71992 369.34C 193.14992 369.1 192.30992 368.77 191.61992 368.48C 190.08992 367.84 188.61992 367.16 187.07993 366.48C 186.51993 366.22 185.97992 365.97 185.43993 365.7L185.43993 365.7L184.14993 365.06L183.05994 364.52C 182.49994 364.25 181.94994 363.96 181.40994 363.66998C 180.24994 363.06 179.10994 362.43 177.96994 361.78998L177.96994 361.78998L176.85994 361.15997C 175.76994 360.52997 174.66994 359.87997 173.59995 359.21997C 162.41995 364.44998 152.87994 366.91998 145.69995 366.21997C 145.7989 366.30545 145.90239 366.38556 146.00995 366.45996C 146.67995 366.99997 147.35995 367.54996 148.00995 368.07996C 149.07996 368.91995 150.17995 369.73996 151.27995 370.54996C 151.85995 370.98996 152.43996 371.40994 153.02995 371.81995C 154.68329 373.0133 156.36662 374.16995 158.07996 375.28995L158.07996 375.28995L159.46996 376.20996C 161.10995 377.25995 162.76996 378.28995 164.46996 379.27997C 165.32996 379.78998 166.19995 380.27997 167.07996 380.77997C 167.95996 381.27997 168.60995 381.63995 169.38995 382.05997L169.38995 382.05997L170.57996 382.69998C 172.3933 383.65997 174.22662 384.58667 176.07996 385.47998C 176.91995 385.88998 177.77995 386.28998 178.62996 386.68C 179.47997 387.07 180.31996 387.44998 181.17996 387.82L181.17996 387.82L181.23996 387.82L182.39996 388.31C 184.17331 389.0767 185.9733 389.81003 187.79996 390.51C 188.54996 390.80002 189.29996 391.09 190.05995 391.36002C 192.35329 392.20004 194.68661 392.9867 197.05995 393.72L197.05995 393.72L198.44995 394.15L200.51996 394.77L201.81996 395.12997L203.41997 395.55997C 204.41997 395.81998 205.34996 396.06998 206.31996 396.30997L206.31996 396.30997L207.02997 396.48996L209.89996 397.13995C 210.44997 397.26996 210.98996 397.37994 211.52997 397.48996C 212.06998 397.59998 212.52997 397.70996 213.07997 397.81995C 213.14655 397.82477 213.21338 397.82477 213.27997 397.81995C 213.78996 397.92993 214.27997 398.01996 214.81996 398.11993C 218.46664 398.78662 222.15665 399.33994 225.88995 399.77994C 226.50995 399.85992 227.12996 399.92993 227.74995 399.97995L227.74995 399.97995L229.90996 400.18994L231.68996 400.32996L232.05995 400.32996L232.68996 400.37994L233.32996 400.37994L235.04996 400.47995L236.65996 400.56995L237.65996 400.56995L238.65996 400.56995L240.19995 400.56995C 241.34995 400.56995 242.50995 400.56995 243.66995 400.56995C 245.66995 400.56995 247.66995 400.5333 249.66995 400.45996C 250.94995 400.40997 252.20995 400.33997 253.47995 400.26996C 256.18994 400.08997 258.86996 399.85995 261.53995 399.54996L261.53995 399.54996L263.53995 399.31995L265.11993 399.10995C 265.75995 399.01996 266.37994 398.93994 267.01993 398.82996L267.01993 398.82996L268.91992 398.53995L270.25992 398.31995C 271.70993 398.06995 273.13992 397.78995 274.56992 397.50995C 275.19992 397.38995 275.8099 397.24994 276.4399 397.11993L276.4399 397.11993L278.28992 396.70993C 279.5299 396.43994 280.76993 396.13992 281.98993 395.82993L281.98993 395.82993L283.82993 395.3499C 285.64993 394.8699 287.46994 394.3499 289.26993 393.78992C 290.46994 393.42993 291.66992 393.04993 292.85992 392.6499L292.85992 392.6499L294.78992 391.9999L296.3999 391.4299C 297.5799 391.0099 298.7499 390.5699 299.9099 390.1099C 300.4899 389.8999 301.06992 389.6699 301.6499 389.4299L301.6499 389.4299L303.3799 388.7299C 304.0299 388.4599 304.6799 388.18988 305.3799 387.8999L305.3799 387.8999L306.8399 387.2499C 307.4099 387.00992 307.97992 386.7499 308.53992 386.4899L308.53992 386.4899L310.2199 385.7099L311.9099 384.9099L313.56992 384.07993C 314.1199 383.79993 314.66992 383.52994 315.20993 383.23993L315.20993 383.23993L316.85992 382.37994L318.85992 381.29996C 319.27994 381.07996 319.70993 380.83997 320.1299 380.59995C 320.5499 380.35992 321.1899 379.98996 321.72992 379.68994L321.72992 379.68994L323.31992 378.74994C 323.97992 378.36993 324.6199 377.96994 325.26993 377.56995L325.26993 377.56995L326.47992 376.82996L328.2 376L329.57 375.1L329.85 374.92L330.04 374.80002C 330.55002 374.46002 331.04 374.12003 331.57 373.80002L331.57 373.80002L332.74002 372.99002C 334.29 371.89 335.84003 370.78003 337.36002 369.63004C 337.88 369.25003 338.36002 368.86005 338.88 368.47003L338.88 368.47003L339.88 367.67004C 340.88 366.91003 341.79 366.14005 342.74 365.36005C 344.16 364.20004 345.56 363.00006 346.93 361.78006L346.93 361.78006L348.24 360.61005L349.65 359.31006C 350.1 358.90005 350.55 358.47006 350.99 358.05005C 351.43 357.63004 351.88 357.21005 352.31 356.78006C 352.46 356.64005 352.61 356.50006 352.74 356.36005L352.74 356.36005L352.78998 356.36005L353.21997 355.93005C 353.29486 355.86514 353.36502 355.79498 353.42996 355.72006L353.42996 355.72006L353.92996 355.24005C 354.02997 355.14005 354.12997 355.04004 354.21997 354.93005C 354.2818 354.87152 354.33868 354.80798 354.38998 354.74005C 354.75485 354.34604 355.08914 353.92484 355.38998 353.48004C 359.78998 346.96005 358.87997 335.87006 353.53998 321.81003C 353.06 322.38 352.53 323.12 352 323.85zM341.34 123.53C 340.66 122.979996 339.98 122.44 339.34 121.909996C 338.27 121.06 337.18 120.24999 336.07 119.439995C 335.49002 118.99999 334.91 118.579994 334.33002 118.17C 332.67 116.979996 330.99002 115.82 329.27002 114.7L329.27002 114.7L327.88 113.78C 326.25 112.78 324.58002 111.7 322.88 110.71C 322.02002 110.2 321.15 109.71 320.28 109.21C 319.41 108.71 318.75 108.35 317.97 107.93L317.97 107.93L317.92 107.93L316.73 107.29C 314.92334 106.33 313.09335 105.403336 311.24002 104.51C 310.39 104.1 309.54 103.700005 308.68002 103.310005C 307.82004 102.920006 306.99002 102.54001 306.13004 102.170006L306.13004 102.170006L306.08005 102.170006L304.92004 101.68001C 303.14005 100.90668 301.34006 100.17334 299.52005 99.48001C 298.77005 99.19001 298.02005 98.90001 297.25006 98.63001C 294.96005 97.790016 292.65005 97.000015 290.25006 96.27001C 289.78006 96.12001 289.32007 95.97001 288.85007 95.84001C 287.74008 95.500015 286.62006 95.18001 285.49008 94.84001L285.49008 94.84001L283.8801 94.41001C 282.8801 94.15001 281.9501 93.90001 280.9801 93.66001L280.9801 93.66001L280.2801 93.48001L277.4101 92.83001C 276.8501 92.70001 276.3101 92.59001 275.77008 92.48001C 275.23007 92.37001 274.77008 92.26001 274.2201 92.15001L274.2201 92.15001L274.02008 92.15001L272.48007 91.86001C 268.83008 91.18001 265.14008 90.61001 261.41006 90.200005C 260.79007 90.12 260.17007 90.05 259.56006 90.00001L259.56006 90.00001L257.39005 89.79001L255.61005 89.65001C 255.07005 89.65001 254.52005 89.56001 253.98004 89.53001L253.98004 89.53001L252.26004 89.43001L250.64005 89.350006L249.64005 89.350006L248.64005 89.350006C 248.12004 89.350006 247.64005 89.350006 247.10005 89.350006C 245.95006 89.350006 244.79005 89.350006 243.63005 89.350006C 241.63005 89.350006 239.63005 89.350006 237.63005 89.46001C 236.36005 89.46001 235.09006 89.58001 233.82005 89.65001C 231.11005 89.82001 228.43005 90.06001 225.76006 90.37001L225.76006 90.37001L223.76006 90.60001L222.18005 90.81001C 221.55005 90.90001 220.92006 90.98001 220.28006 91.09001L220.28006 91.09001L218.38007 91.38001L217.04007 91.60001C 215.60007 91.85001 214.16006 92.12001 212.73007 92.41001L212.73007 92.41001L210.86008 92.80001L209 93C 207.76 93.27 206.53 93.57 205.3 93.88C 204.69 94.03 204.07 94.2 203.47 94.36C 201.64 94.840004 199.83 95.36 198.02 95.92C 196.82 96.28 195.62001 96.659996 194.44 97.06C 193.79001 97.27 193.14 97.479996 192.5 97.71L192.5 97.71L190.89 98.28C 189.71 98.7 188.54 99.14 187.38 99.59C 186.80002 99.81 186.22002 100.04 185.64 100.28L185.64 100.28L184 101C 183.35 101.27 182.7 101.54 182.05 101.83C 181.55 102.04 181.05 102.26 180.58 102.48C 180.11 102.700005 179.44 102.98 178.88 103.240005C 178.32 103.50001 177.76001 103.76 177.20001 104.020004L177.20001 104.020004L175.52002 104.82001C 174.97002 105.090004 174.41002 105.36001 173.85002 105.65001C 173.29002 105.94001 172.75002 106.20001 172.21002 106.490005L172.21002 106.490005L170.56003 107.350006C 169.90002 107.700005 169.24002 108.05 168.56003 108.43001C 168.14003 108.65001 167.71002 108.89001 167.29002 109.130005C 166.87003 109.37 166.23003 109.740005 165.69002 110.04001L165.69002 110.04001L164.10002 110.98001C 163.44002 111.36001 162.80002 111.76001 162.15002 112.16001L162.15002 112.16001L160.94002 112.90001C 160.06001 113.45001 159.20001 114.01001 158.33002 114.58001L158.33002 114.58001L157.73001 114.97001L156.11 116C 155.97 116.08 155.85 116.18 155.72 116.26C 155.44 116.450005 155.15 116.64 154.88 116.840004L154.88 116.840004L153.24 118L152.90001 118.25C 152.18001 118.76 151.46 119.3 150.74 119.82C 150.6861 119.87119 150.62556 119.91492 150.56001 119.95L150.56001 119.95L149 121.13C 148.45 121.549995 147.9 121.96999 147.36 122.399994C 146.36 123.159996 145.45 123.92999 144.5 124.7C 143.08 125.869995 141.69 127.07 140.31 128.29C 139.87 128.68 139.44 129.06 139.01 129.45999L139.01 129.45999L137.59 130.76L136.25 132L134.93 133.28L134.45 133.74L134.03 134.17L133.98 134.17C 133.90999 134.24 133.84 134.3 133.76999 134.38L133.76999 134.38L133.26999 134.86L133.19998 134.94L132.97998 135.17C 132.91843 135.22876 132.86159 135.2923 132.80998 135.36C 132.44582 135.75458 132.11156 136.17574 131.80998 136.62C 127.40998 143.14 128.31998 154.22 133.65999 168.29C 134.33998 167.29 135.02998 166.29 135.73999 165.39L135.73999 165.39L135.81 165.3C 136.27 164.68001 136.72 164.07 137.19 163.47C 137.31 163.3 137.45 163.14 137.57 162.98L137.57 162.98L137.73001 162.76999L139.18001 160.93999C 139.35 160.73999 139.51001 160.52998 139.68001 160.31999C 140.01001 159.90999 140.34001 159.49998 140.68001 159.09999L140.68001 159.09999L140.99 158.73L141.59001 158.01999L141.66002 157.94998C 142.09001 157.43999 142.54002 156.94998 143.00002 156.40999C 143.26001 156.08998 143.55002 155.76999 143.84001 155.40999C 144.13 155.04999 144.58002 154.57999 144.96 154.16998L144.96 154.16998L145.21 153.90999L145.42001 153.68L146.05002 153.01L146.60002 152.43L146.67003 152.35999C 146.86003 152.14998 147.06003 151.94998 147.26003 151.73999C 147.63002 151.34999 148.01003 150.96999 148.39003 150.59L148.39003 150.59L149.11003 149.87999C 149.66003 149.32999 150.22003 148.77998 150.79002 148.23999C 151.71002 147.34 152.64003 146.46999 153.59003 145.60999L153.59003 145.60999L154.69003 144.60999C 155.11003 144.21999 155.55003 143.83998 156.00003 143.45999L156.00003 143.45999L156.93002 142.65999L157.78003 141.94998C 158.45003 141.38998 159.13004 140.82999 159.78003 140.28998C 160.25003 139.90997 160.72003 139.52998 161.21002 139.15997C 161.90002 138.61998 162.59003 138.07997 163.30002 137.55997L163.30002 137.55997L163.38002 137.48996L165.09003 136.23996C 165.70337 135.79996 166.31337 135.36996 166.92003 134.94997C 167.60002 134.45996 168.29002 133.94997 168.92003 133.53996L168.92003 133.53996L169.66003 133.04996L170 133L171.12 132.27L172.76999 131.27C 173.16998 131.01001 173.57999 130.76001 173.98 130.52C 174.17 130.39 174.37 130.28 174.56 130.16L174.56 130.16L175.36 129.69L175.53 129.58L177.53 128.44L177.87 128.24L179.72 127.240005C 180.45 126.840004 181.19 126.450005 181.93001 126.060005L181.93001 126.060005L182.1 125.96001C 182.5 125.75001 182.91 125.54001 183.33 125.340004C 183.6 125.19 183.90001 125.060005 184.18001 124.920006C 184.93001 124.55 185.67001 124.18001 186.42001 123.83001C 186.47249 123.79525 186.52975 123.7683 186.59001 123.75001C 187.25668 123.41 187.9567 123.076675 188.69002 122.75001C 189.62001 122.32001 190.56001 121.91001 191.50002 121.51001L191.50002 121.51001L193.30002 120.77001L193.68002 120.62001C 193.90002 120.52001 194.11002 120.45001 194.32002 120.36001L194.32002 120.36001L195.25002 120.00001C 195.51001 119.89001 195.79001 119.78001 196.06001 119.69001C 196.70001 119.44001 197.36002 119.19001 198.00002 118.96001L198.00002 118.96001L199.59001 118.40001L199.92001 118.29001L200.38002 118.130005C 200.91002 117.950005 201.45003 117.76 202.00002 117.600006C 202.25002 117.50001 202.52002 117.420006 202.79001 117.33001L202.79001 117.33001L203.55 117.09001C 204.34 116.84001 205.15001 116.59001 205.96 116.36001C 206.52 116.19001 207.09001 116.03001 207.66 115.880005C 208.46 115.65 209.26001 115.44 210.07 115.23L210.07 115.23L210.16 115.23C 210.97 115.020004 211.79001 114.82 212.6 114.630005C 213.41 114.44001 214.21 114.25001 215.02 114.08C 215.06654 114.07532 215.11345 114.07532 215.16 114.08C 215.98001 113.90001 216.80002 113.73 217.62001 113.57L217.62001 113.57L219.93001 113.13L220.16 113.13L222.56 112.729996L222.78 112.729996C 223.49 112.60999 224.2 112.509995 224.91 112.409996L224.91 112.409996L225.27 112.409996L227.76001 112.09L228.27 112.03C 228.99 111.95 229.72 111.869995 230.45 111.81L230.45 111.81L231.52 111.71C 231.85 111.71 232.17 111.64 232.52 111.63L232.52 111.63L233.79001 111.52C 234.21 111.52 234.64001 111.46 235.06001 111.439995L235.06001 111.439995L236.27002 111.35999L238.35002 111.259995L240.22002 111.259995L241.16002 111.259995C 241.99002 111.259995 242.84001 111.259995 243.68002 111.259995L243.68002 111.259995L245.68002 111.259995C 246.12003 111.259995 246.55002 111.259995 246.98003 111.259995L246.98003 111.259995L248.46002 111.259995C 249.25002 111.259995 250.04002 111.259995 250.84003 111.35999L250.84003 111.35999L252.32002 111.44999C 252.76003 111.44999 253.22002 111.44999 253.66002 111.539986L253.66002 111.539986L255.35002 111.66998L257.03003 111.83998C 258.49002 111.97998 259.95004 112.139984 261.39 112.32998L261.39 112.32998L263.45 112.61998L264.80002 112.81998C 264.85965 112.829506 264.92038 112.829506 264.98 112.81998L264.98 112.81998L267.2 113.199974L269.48 113.629974C 269.79 113.68997 270.11002 113.739975 270.41 113.809975L270.41 113.809975L271.19 113.96998C 271.56 114.04998 271.93 114.11998 272.29 114.20998C 273.02002 114.35998 273.73 114.51997 274.44 114.699974L274.44 114.699974L276.2 115.10998L277.33002 115.40998L278.48 115.709984L280.48 116.249985L280.74002 116.32999L282.80002 116.93999L283.55002 117.16999C 284.6 117.48999 285.64 117.829994 286.68002 118.16999L286.68002 118.16999L287.29 118.37999L289.43002 119.13999L289.78003 119.26999C 290.78003 119.63999 291.78003 120.02999 292.84003 120.42999C 294.36005 121.02333 295.8667 121.649994 297.36002 122.30999L297.36002 122.30999L298.85 122.96999L300.33002 123.649994C 301.33002 124.09999 302.33002 124.579994 303.25003 125.06L303.25003 125.06L304.11002 125.479996L304.34003 125.60999C 304.84003 125.84999 305.34003 126.10999 305.83002 126.37999C 306.7 126.82999 307.58002 127.29999 308.43002 127.77999C 308.53656 127.83065 308.64005 127.88741 308.74002 127.94999L308.74002 127.94999L309.85 128.56999L311.15 129.31999L311.25 129.37999L312.4 130.05998L313.79 130.89998C 324.97 125.669975 334.52002 123.19998 341.69 123.89998z" stroke="none" fill="#2667FF" fill-rule="nonzero" />
                <path d="M355.4 136.61C 355.19095 136.30026 354.9639 136.00308 354.72 135.72C 354.64856 135.61658 354.56827 135.51955 354.48 135.43001C 354.4534 135.3991 354.42993 135.36559 354.41 135.33C 354.23 135.14 354.05002 134.94 353.86002 134.76C 353.8171 134.70912 353.7665 134.66525 353.71002 134.62999C 353.55676 134.46317 353.3931 134.30618 353.22003 134.15999C 352.81934 133.79886 352.39508 133.46478 351.95004 133.15999C 345.43005 128.76 334.35004 129.66998 320.28003 135.01999C 301.11002 142.29999 276.43002 157.79999 250.28003 179.24998C 255.09337 183.30998 259.9267 187.56665 264.78003 192.01999C 300.62003 161.34 330.07004 143.76 337.95 149.81999C 338.11374 149.93324 338.26465 150.06403 338.40002 150.20999C 345.54004 157.34 327.93002 187.20999 296.69003 223.69998C 294.81003 225.89998 292.87003 228.13998 290.89005 230.38998C 288.91006 232.63998 287.04004 234.70999 285.05005 236.90999L285.05005 236.90999L283.61005 238.48999C 281.67004 240.62999 279.67004 242.77998 277.61005 244.95999C 275.55005 247.14 273.61005 249.17 271.61005 251.29999C 270.4967 252.45999 269.37006 253.62666 268.23004 254.79999C 267.09006 255.97334 264.9367 257.97333 261.77005 260.8L261.77005 260.8L260.12006 262.3C 257.94006 264.3 255.7834 266.23334 253.65005 268.09998L253.65005 268.09998L255.15005 266.77C 257.32007 264.84998 259.51004 262.87 261.69006 260.86C 263.8701 258.84998 265.90005 256.96997 268.01007 254.96999C 271.4634 251.69 274.91675 248.32333 278.37006 244.86998C 281.8234 241.41666 285.1734 237.97998 288.42004 234.55998L288.42004 234.55998L290.96005 231.85999L294.37006 228.18999C 296.37006 225.98999 298.37006 223.78667 300.37006 221.57999C 300.77005 221.12999 301.18005 220.68 301.57007 220.22998C 303.5301 218.00998 305.44006 215.80331 307.30008 213.60999C 328.6501 187.55998 344.08008 162.96999 351.30008 143.87C 358.94 154.24 359.84 143.12 355.4 136.61zM149.32 340.16C 149.24854 340.10928 149.18161 340.0524 149.12001 339.99C 149.02637 339.9216 148.93932 339.8446 148.86002 339.75998C 148.76878 339.674 148.68515 339.58032 148.61002 339.47998C 142.18002 331.84998 159.76001 302.25998 190.61002 266.18C 192.47003 264 194.38336 261.7967 196.35002 259.57C 198.31671 257.34335 200.28337 255.14001 202.25002 252.96L202.25002 252.96L203.68001 251.40001C 205.61334 249.28001 207.58667 247.14334 209.6 244.99C 211.61334 242.83667 213.63669 240.70001 215.67001 238.58C 216.80002 237.40001 217.94002 236.23 219.09001 235.04001C 221.46335 232.6 223.87003 230.16335 226.31001 227.73001C 228.44002 225.73001 230.56001 223.73001 232.67001 221.84001L232.67001 221.84001L234.32 220.35C 236.52002 218.35 238.70668 216.39334 240.88 214.48001L240.88 214.48001L239.66 215.55002L239.41 215.77002C 237.77 217.25002 236.11 218.77002 234.46 220.25002C 233.97 220.68001 233.46 221.12001 233.01001 221.57002C 230.85669 223.57002 228.71002 225.57002 226.57 227.57002C 224.43002 229.57002 221.12668 232.96336 216.66 237.75003L216.66 237.75003L213.92 240.65002C 212.8 241.84003 211.68 243.05002 210.59 244.25003C 208.59 246.42003 206.59 248.56003 204.73 250.72003C 204.34 251.16003 203.95999 251.61003 203.56999 252.04004C 201.57 254.30672 199.61 256.5667 197.68999 258.82004C 195.76999 261.07336 193.88998 263.32336 192.04999 265.57004C 170.62 291.68005 155.13998 316.33005 147.87999 335.47003C 142.52998 349.56003 141.62999 360.67004 146.06999 367.19003C 146.37134 367.6439 146.70557 368.07504 147.06999 368.48004L147.06999 368.48004L147.26999 368.69003L147.60999 369.05002C 147.65167 369.09842 147.69864 369.14203 147.74998 369.18002L147.74998 369.18002L147.82999 369.26C 153.99998 375.16 165.82999 374.61002 181.18999 368.76C 200.29999 361.5 224.91998 346.06 250.99998 324.67C 246.22665 320.58337 241.43 316.31003 236.60999 311.85C 186.63 328.65 157.21 346.19 149.32 340.16z" stroke="none" fill="#2667FF" fill-rule="nonzero" />
                <path d="M303.78 245C 299.67334 240.17334 295.37665 235.32 290.88998 230.44C 286.40332 225.56001 280.84665 220.22668 274.21997 214.44C 269.32666 209.94669 264.46332 205.64668 259.62997 201.54001C 215.78998 164.21 175.02997 142.82 156.04997 147.8C 153.55156 148.40294 151.26147 149.66714 149.41997 151.46C 148.11807 152.76608 147.09715 154.3247 146.41997 156.04001C 139.16997 174.04001 160.73996 216.19 199.48996 261.69C 203.58997 266.51666 207.88995 271.37665 212.38995 276.27C 216.88995 281.16333 222.4533 286.49667 229.07996 292.27C 233.9533 296.75 238.80997 301.05 243.64996 305.16998C 290.80997 345.31998 334.37997 367.02 351.15997 357.31C 352.1535 356.75085 353.06537 356.0577 353.86996 355.25C 354.22986 354.90485 354.5641 354.53384 354.86996 354.14C 367.09 338.65 345.29 293.73 303.78 245zM339.89 336.52C 339.77408 337.7413 339.2531 338.8888 338.41 339.78C 337.28162 340.806 335.8049 341.36377 334.28 341.34C 322.28 341.91 292.64 322.61 258.21 292.25C 253.43999 288.04 248.56999 283.62 243.65 279C 237.93999 273.68 232.17 268.09 226.37999 262.29C 220.58998 256.49002 215 250.68 209.65 245C 205.03667 240.06668 200.62 235.21 196.4 230.43C 166.81999 196.87999 147.75 167.92 147.31 155.32999C 147.09755 153.48833 147.66705 151.64197 148.88 150.23999C 150.19 148.91998 152.27 148.45 155 148.73999C 168.1 150.10999 196.41 168.94998 229.07 197.73999C 233.84335 201.95999 238.70335 206.37666 243.65001 210.98999C 249.34001 216.32999 255.12001 221.91998 260.92 227.71999C 266.72003 233.51999 272.3 239.3 277.64 245C 282.25336 249.92668 286.67004 254.78336 290.89 259.57C 322 294.85 341.5 325.07 339.89 336.5z" stroke="none" fill="#2667FF" fill-rule="nonzero" />
                <path d="M369.25 286.39C 362.99 286.34003 358.47 283.23 355.85 277.63C 355.4124 276.24973 354.0294 275.39865 352.6 275.63C 350.17 275.73 347.74002 275.63 345.31 275.63C 340.83667 275.63 338.05002 273.71002 336.95 269.87C 335.63 265.31 337.09003 261.02 340.73 258.76C 341.11002 258.52002 341.5 258.31 342.26 257.86002C 338.6 255.94002 336.56 253.27002 336.57 249.12001C 336.58002 244.97 338.13 242.01001 342.33002 240.12001C 338.6 238.12001 336.55002 235.49 336.58002 231.33002C 336.61002 227.17003 338.07 224.19002 341.91 222.55002C 341.74 221.40002 340.76 221.39001 340.14 220.97002C 336.77002 218.67001 336.34003 215.25002 336.67 211.63002C 336.8629 208.6765 338.7275 206.09326 341.47 204.98003C 342.64618 204.51935 343.90973 204.32469 345.17 204.41002C 353.53 204.41002 361.90002 204.41002 370.26 204.41002L370.26 204.41002L400.09 204.41002C 402.88 204.48003 405.66998 204.49002 408.46 204.41002C 412.95117 204.18234 417.26163 206.20262 419.96 209.80002C 420.78302 210.96823 422.16678 211.60864 423.59 211.48001C 427.81 211.38 432.04 211.48001 436.27 211.41C 437.9 211.41 438.68 211.69 438.68 213.59C 438.61334 228.34334 438.61334 243.09668 438.68 257.85C 438.68 259.73 437.94998 260.09 436.3 260.04C 432.61 259.95 428.91998 260.04 425.22998 259.98C 423.71997 259.98 423.05 260.37003 422.71 261.98C 421.27 268.69 417.25 273.17 410.61 275.13C 409.7483 275.3491 409.074 276.01956 408.84998 276.88C 406.25998 283.6 402.08 286.51 394.84998 286.46L394.84998 286.46L369.25 286.39z" stroke="none" fill="#2667FF" fill-rule="nonzero" />
                <path d="M485.05 235.78C 485.05 243.05 484.99 250.33 485.05 257.61C 485.05 259.49 484.50998 260.06 482.62 260.03998C 471.57336 259.96 460.52335 259.96 449.47 260.03998C 447.68 260.03998 447.18 259.46 447.2 257.72998C 447.28003 249.99664 447.28003 242.26999 447.2 234.54999C 447.0134 233.18674 447.91312 231.91138 449.26 231.62999C 451.32358 230.9738 453.22754 229.8941 454.85 228.45999C 456.32 227.06999 456.31 225.68 454.96 224.24998C 453.53262 222.73674 451.7778 221.57028 449.83 220.83998C 447.71 220.03998 447.11 218.74998 447.18 216.55998C 447.33 211.43999 447.18 211.42998 452.28 211.42998C 462.34 211.42998 472.4 211.42998 482.47 211.42998C 484.47 211.42998 485.09 211.93997 485.06 213.97998C 485 221.22 485.05 228.5 485.05 235.78z" stroke="none" fill="#2667FF" fill-rule="nonzero" />
                <path d="M284.49 115.85C 284.44 122.11 281.33 126.63 275.72998 129.25C 274.3497 129.6876 273.49863 131.07062 273.72998 132.5C 273.83 134.93 273.72998 137.36 273.72998 139.79C 273.72998 144.25 271.81332 147.03334 267.97998 148.14C 263.41998 149.47 259.12997 148.01 256.87 144.37C 256.63 143.98999 256.41998 143.59999 255.97 142.84C 254.05 146.5 251.38 148.53 247.23 148.53C 243.07999 148.53 240.12 146.97 238.23 142.77C 236.23 146.5 233.59999 148.55 229.44 148.52C 225.28001 148.49 222.3 147.03 220.66 143.19C 219.51001 143.35 219.5 144.34 219.08 144.96C 216.77 148.33 213.36 148.75 209.74 148.42001C 206.78307 148.2366 204.1953 146.36874 203.09001 143.62001C 202.62854 142.44754 202.43384 141.18706 202.52 139.93001C 202.52 131.56001 202.52 123.20001 202.52 114.84001L202.52 114.84001L202.52 85.01001C 202.59001 82.22001 202.6 79.43001 202.52 76.64001C 202.29233 72.148834 204.3126 67.838394 207.91 65.14001C 209.07822 64.31697 209.71863 62.933228 209.59 61.510006C 209.48999 57.290005 209.59 53.060005 209.51999 48.830006C 209.51999 47.200005 209.79 46.410004 211.69998 46.420006C 226.45332 46.49334 241.20665 46.49334 255.95998 46.420006C 257.83997 46.420006 258.19998 47.160007 258.14996 48.810005C 258.05997 52.500004 258.14996 56.190006 258.08997 59.880005C 258.08997 61.390003 258.46997 62.060005 260.08997 62.400005C 266.79996 63.840004 271.26996 67.86001 273.22998 74.50001C 273.4566 75.36099 274.12903 76.03341 274.99 76.26001C 281.71 78.850006 284.61 83.03001 284.56998 90.26001L284.56998 90.26001L284.49 115.85z" stroke="none" fill="#2667FF" fill-rule="nonzero" />
                <path d="M233.87 0.05C 241.15 0.05 248.43 0.11 255.70999 0.05C 257.59 0.05 258.16 0.58 258.13998 2.48C 258.06 13.533334 258.06 24.583334 258.13998 35.63C 258.13998 37.420002 257.56 37.920002 255.81998 37.9C 248.09999 37.820004 240.37665 37.820004 232.64998 37.9C 231.28355 38.085987 230.00687 37.18094 229.72998 35.83C 229.06749 33.772156 227.98842 31.872732 226.55998 30.250002C 225.16998 28.780003 223.77998 28.79 222.33998 30.140001C 220.8328 31.570469 219.67021 33.324593 218.93999 35.27C 218.13998 37.38 216.84999 37.98 214.65999 37.920002C 209.52998 37.77 209.52998 37.920002 209.52998 32.820004C 209.52998 22.760002 209.57999 12.690004 209.52998 2.630003C 209.47 0.6 210 0 212 0C 219.32 0.12 226.6 0.05 233.87 0.05z" stroke="none" fill="#2667FF" fill-rule="nonzero" />
                <path d="M202.51 371.15C 202.56 364.88998 205.67 360.37 211.26999 357.75C 212.65024 357.3124 213.50134 355.92938 213.26999 354.5C 213.16998 352.07 213.26999 349.64 213.26999 347.21C 213.26999 342.75 215.18666 339.96667 219.01999 338.86C 223.57999 337.53 227.87 338.99 230.12999 342.62997C 230.37 343.00998 230.57999 343.39996 231.02998 344.15997C 232.94998 340.49997 235.61998 338.46997 239.76999 338.46997C 243.92 338.46997 246.87999 340.02997 248.76999 344.22998C 250.76999 340.49997 253.4 338.44998 257.56 338.47998C 261.72 338.50998 264.7 339.96997 266.34 343.80997C 267.49 343.64996 267.5 342.65997 267.91998 342.03998C 270.22998 338.66998 273.63998 338.24997 277.25998 338.58C 280.21692 338.7634 282.80466 340.63126 283.90997 343.37997C 284.37143 344.55243 284.56616 345.8129 284.47998 347.06998C 284.47998 355.43997 284.47998 363.8 284.47998 372.15997L284.47998 372.15997L284.47998 401.98996C 284.40997 404.77997 284.4 407.56995 284.47998 410.35995C 284.70764 414.85114 282.68738 419.16156 279.08997 421.85995C 277.92175 422.68298 277.28134 424.06674 277.40997 425.48996C 277.50998 429.70996 277.40997 433.93997 277.47998 438.16995C 277.47998 439.79996 277.21 440.58997 275.3 440.57996C 260.55334 440.5133 245.8 440.5133 231.04 440.57996C 229.15999 440.57996 228.79999 439.83997 228.84999 438.18994C 228.93999 434.49994 228.84999 430.80994 228.90999 427.11993C 228.90999 425.60992 228.52998 424.93994 226.90999 424.59995C 220.19998 423.15994 215.72998 419.13995 213.76999 412.49994C 213.54338 411.63895 212.87097 410.96652 212.01 410.73993C 205.29 408.14993 202.39 403.96994 202.43 396.73993L202.43 396.73993L202.51 371.15z" stroke="none" fill="#2667FF" fill-rule="nonzero" />
                <path d="M253.13 487C 245.85 487 238.57 486.94 231.29001 487C 229.41 487 228.84001 486.47 228.86002 484.57C 228.94003 473.52335 228.94003 462.47333 228.86002 451.42C 228.86002 449.63 229.44002 449.13 231.18002 449.15002C 238.90004 449.23004 246.62337 449.23004 254.35002 449.15002C 255.71646 448.96405 256.99313 449.8691 257.27002 451.22003C 257.93253 453.27786 259.0116 455.17728 260.44003 456.80002C 261.83005 458.27002 263.22003 458.26 264.66003 456.91C 266.16724 455.47952 267.3298 453.7254 268.06003 451.78C 268.86002 449.67 270.15002 449.07 272.34003 449.13C 277.47003 449.28 277.47003 449.13 277.47003 454.23C 277.47003 464.29 277.42004 474.36002 277.47003 484.42C 277.47003 486.42 276.96002 487.04 274.92004 487.01C 267.68 486.88 260.4 487 253.13 487z" stroke="none" fill="#2667FF" fill-rule="nonzero" />
                <path d="M115.85 204.41C 122.11 204.46 126.63 207.58 129.25 213.18001C 129.68399 214.5631 131.06973 215.41588 132.5 215.18001C 134.93 215.08 137.36 215.18001 139.79 215.18001C 144.25 215.18001 147.03334 217.09668 148.14 220.93001C 149.47 225.49 148.01 229.78001 144.37 232.04001C 143.98999 232.28001 143.59999 232.49 142.84 232.94C 146.5 234.86 148.53 237.53 148.53 241.68001C 148.53 245.83002 146.97 248.79001 142.77 250.68001C 146.5 252.68001 148.55 255.31001 148.52 259.47C 148.49 263.63 147.03 266.61002 143.19 268.25C 143.35 269.4 144.34 269.41 144.96 269.83C 148.33 272.13998 148.75 275.55 148.42001 279.16998C 148.23898 282.12778 146.3703 284.71667 143.62001 285.81998C 142.44754 286.28143 141.18706 286.47617 139.93001 286.38998C 131.56001 286.38998 123.20001 286.38998 114.84001 286.38998L114.84001 286.38998L85 286.4C 82.21 286.33 79.42 286.32 76.63 286.4C 72.14046 286.62198 67.83418 284.59814 65.14 281C 64.31461 279.83554 62.93129 279.19916 61.51 279.33C 57.289997 279.43 53.059998 279.33 48.829998 279.38998C 47.199997 279.38998 46.409996 279.12 46.42 277.21C 46.493332 262.46332 46.493332 247.71333 46.42 232.95999C 46.42 231.06999 47.16 230.70999 48.809998 230.76C 52.499996 230.84999 56.19 230.76 59.879997 230.81999C 61.389996 230.81999 62.059998 230.43999 62.399998 228.81999C 63.839996 222.10999 67.86 217.63998 74.5 215.68C 75.340935 215.46782 76.00897 214.83015 76.26 214C 78.85 207.28 83.03 204.38 90.26 204.42L90.26 204.42L115.85 204.41z" stroke="none" fill="#2667FF" fill-rule="nonzero" />
                <path d="M0.05 255C 0.05 247.72 0.11 240.44 0.05 233.16C 0.05 231.28 0.58 230.71 2.48 230.73001C 13.533334 230.81001 24.583334 230.81001 35.63 230.73001C 37.420002 230.73001 37.920002 231.31001 37.9 233.05002C 37.820004 240.77002 37.820004 248.49669 37.9 256.23C 38.080307 257.59286 37.176594 258.8633 35.83 259.14C 33.773987 259.8067 31.875366 260.8853 30.250002 262.31003C 28.780003 263.70004 28.79 265.09003 30.140001 266.53003C 31.567732 268.0405 33.322662 269.2036 35.27 269.93002C 37.38 270.73 37.98 272.02002 37.920002 274.21002C 37.77 279.34003 37.920002 279.34003 32.820004 279.34003C 22.760002 279.34003 12.690004 279.29004 2.630003 279.34003C 0.630003 279.34003 0.01000309 278.83002 0.04000306 276.79004C 0.12 269.58 0.05 262.3 0.05 255z" stroke="none" fill="#2667FF" fill-rule="nonzero" />
			</g>
            <path d="M545.64 391L545.64 466.63L530.08 466.63L530.08 404.22L507.82 404.22L507.82 391L545.64 391zM547.9 391L567.9 391L567.9 404.18L554.5 404.18z" stroke="none" fill="#2667FF" fill-rule="nonzero" />
            <path d="M602.14 411.78C 605.875 411.75717 609.57367 412.51328 613 414C 616.30237 415.42856 619.3077 417.46375 621.86 420C 624.4022 422.5474 626.4382 425.55386 627.86 428.86C 629.32275 432.3052 630.05164 436.01746 630 439.76C 630.0046 441.79434 629.7866 443.82306 629.35 445.81L629.35 445.81L629.24 446.03L601.82 446.03L594.9 435.03L615.43005 435.03C 614.5042 432.11966 612.77014 429.53244 610.43005 427.57C 608.1124 425.63815 605.17676 424.6052 602.16003 424.66C 600.2596 424.64963 598.3795 425.05225 596.65 425.84C 594.9647 426.5996 593.4432 427.67963 592.17004 429.02C 590.87006 430.38513 589.8508 431.9922 589.17004 433.75C 588.434 435.66376 588.0675 437.6997 588.09 439.75C 588.11554 441.4994 588.4542 443.23004 589.09 444.86C 589.73126 446.61255 590.6831 448.23517 591.9 449.65C 593.1481 451.1094 594.6486 452.33224 596.33 453.25998C 598.11395 454.24252 600.12354 454.74234 602.16003 454.71C 603.9754 454.73047 605.7821 454.45694 607.51 453.9C 609.3686 453.1812 610.96796 451.9199 612.10004 450.28L612.10004 450.28L612.21 450.17L612.43 450.28L624.96 455.8L624.74005 456.02C 622.1902 459.6176 618.79803 462.53595 614.86005 464.52C 604.0462 470.0311 590.91815 467.99622 582.28 459.47C 579.7378 456.9226 577.70184 453.91614 576.28 450.61002C 573.3197 443.6726 573.3197 435.8274 576.28 428.89C 579.1263 422.18124 584.4693 416.8418 591.18 414C 594.64233 412.51584 598.37305 411.76016 602.14 411.78z" stroke="none" fill="#2667FF" fill-rule="nonzero" />
            <path d="M696.46 446L708.13 453.67L708.02 453.78C 703.03516 462.36044 693.8533 467.6317 683.93 467.61C 680.1737 467.65088 676.4505 466.9049 673 465.42C 669.69257 464.00055 666.6857 461.9643 664.14 459.42C 661.6015 456.86954 659.56604 453.86383 658.14 450.56003C 655.1935 443.658 655.1935 435.85202 658.14 428.95C 661.0054 422.27734 666.3254 416.9609 673 414.1C 676.4442 412.61548 680.1594 411.8629 683.91 411.89C 693.836 411.85797 703.0227 417.132 708 425.72L708 425.72L708.11 425.83L696.33997 433.5L696.23 433.39C 695.1602 430.82904 693.4359 428.59436 691.23 426.91C 689.1477 425.28647 686.5804 424.40955 683.94 424.42C 682.0493 424.41202 680.18176 424.83612 678.48 425.66C 676.8108 426.46838 675.3212 427.60425 674.1 429C 672.8539 430.4396 671.866 432.0838 671.18 433.86C 670.4525 435.73785 670.0861 437.7362 670.1 439.75C 670.08246 441.74786 670.4491 443.73053 671.18 445.59C 671.858 447.32193 672.84766 448.91492 674.1 450.29C 676.628 453.03464 680.1988 454.5821 683.93 454.55002C 686.52856 454.5747 689.0725 453.8035 691.22 452.34003C 693.45325 450.7984 695.19037 448.6409 696.22 446.13004L696.22 446.13004L696.32996 445.91003L696.46 446z" stroke="none" fill="#2667FF" fill-rule="nonzero" />
            <path d="M735.25 391L749.62 391L749.51 466.63L735.14 466.63L735.25 391zM784.77 419.09C 787.99005 423.41003 789.60004 430.25 789.60004 439.61L789.60004 439.61L789.60004 466.61L775.23 466.61L775.23 439.72C 775.23 437.79 775.17 435.92 775.06 434.12C 774.99744 432.48123 774.61346 430.87073 773.93 429.38C 773.26306 427.99344 772.1649 426.8602 770.8 426.15C 768.8746 425.25638 766.75964 424.8478 764.64 424.96C 762.27057 425.03024 759.9456 425.62085 757.83 426.69L757.83 426.69L757.72003 426.8L757.61005 426.58L752.43005 417.22L752.54004 417.12C 754.36487 415.47488 756.49054 414.19812 758.80005 413.36C 761.2301 412.49973 763.7924 412.07324 766.37006 412.09998C 775.06335 412.1 781.1967 414.44336 784.77 419.13z" stroke="none" fill="#2667FF" fill-rule="nonzero" />
            <path d="M817.79 412.64L832.49 412.64L832.49 466.64L817.79 466.64L817.79 412.64zM867.70996 418.91C 869.6285 421.389 870.9586 424.27158 871.6 427.34C 872.46497 431.45883 872.86414 435.66193 872.79 439.87L872.79 439.87L872.79 466.66998L858.08997 466.66998L858.08997 439.8C 858.08997 437.8 858.04 435.84998 857.93 434.00998C 857.86084 432.3271 857.47754 430.67197 856.8 429.12997C 856.14417 427.71497 855.04065 426.55527 853.66 425.83C 851.7376 424.93796 849.6263 424.52945 847.50995 424.63998C 845.0819 424.62387 842.6841 425.1788 840.50995 426.25998L840.50995 426.25998L840.50995 426.36996L840.41 426.25998L835.11 416.91998L835.22 416.81998C 839.084 413.4387 844.0882 411.6515 849.22 411.81998C 857.8734 411.79333 864.03674 414.15668 867.71 418.91z" stroke="none" fill="#2667FF" fill-rule="nonzero" />
            <path d="M927.24 411.78C 930.9912 411.75607 934.7065 412.51205 938.15 414C 944.82086 416.863 950.137 422.17914 953 428.85C 955.9606 435.74918 955.9606 443.56088 953 450.46002C 950.1367 457.13647 944.81647 462.45673 938.14 465.32C 931.1659 468.2706 923.29407 468.2706 916.32 465.32C 909.64355 462.45673 904.3233 457.13647 901.46 450.46002C 898.5135 443.558 898.5135 435.75204 901.46 428.85004C 904.32776 422.1755 909.6516 416.8588 916.33 414C 919.7736 412.51205 923.48883 411.75607 927.24 411.78zM927.24 454.66998C 928.9768 454.67987 930.6909 454.27533 932.24 453.49C 933.80896 452.6681 935.2018 451.54703 936.33997 450.19C 937.5517 448.7454 938.50256 447.10083 939.14996 445.33002C 939.8375 443.40543 940.17615 441.3736 940.14996 439.33002C 940.16406 437.3591 939.82544 435.40158 939.14996 433.55002C 938.52246 431.80307 937.5689 430.19116 936.33997 428.80002C 935.18427 427.49023 933.7937 426.40826 932.24 425.61002C 930.6916 424.82156 928.97754 424.4136 927.24 424.42C 925.4768 424.41348 923.73676 424.82108 922.16 425.61002C 920.5812 426.3961 919.1687 427.4792 918 428.8C 916.7775 430.1941 915.82776 431.80533 915.2 433.55C 914.5199 435.40033 914.1811 437.3587 914.2 439.33C 914.1699 441.37384 914.50867 443.40637 915.2 445.33C 915.84784 447.0985 916.795 448.74246 918 450.18997C 919.15106 451.558 920.56586 452.6803 922.16 453.48996C 923.7375 454.2758 925.47754 454.68002 927.24 454.67z" stroke="none" fill="#2667FF" fill-rule="nonzero" />
            <path d="M996.61 391L996.61 466.63L982.24 466.63L982.33997 391L996.61 391z" stroke="none" fill="#2667FF" fill-rule="nonzero" />
            <path d="M1051.6 411.78C 1055.3503 411.7538 1059.0654 412.50635 1062.51 413.99C 1069.1864 416.85327 1074.5066 422.17352 1077.37 428.84998C 1080.3164 435.75198 1080.3164 443.55795 1077.37 450.45996C 1074.5066 457.1364 1069.1864 462.45667 1062.51 465.31995C 1055.536 468.27054 1047.6642 468.27054 1040.6901 465.31995C 1034.0135 462.45667 1028.6934 457.1364 1025.8301 450.45996C 1022.8836 443.55795 1022.8836 435.75198 1025.8301 428.84998C 1028.6954 422.17734 1034.0154 416.86093 1040.69 414C 1044.1337 412.51205 1047.8489 411.75607 1051.6 411.78zM1051.6 454.66998C 1053.3369 454.68143 1055.0514 454.27682 1056.6 453.49C 1058.1737 452.67096 1059.5703 451.54956 1060.71 450.19C 1061.9182 448.74298 1062.8688 447.09906 1063.52 445.33002C 1064.2075 443.40543 1064.5463 441.3736 1064.52 439.33002C 1064.5344 437.3591 1064.1957 435.40155 1063.52 433.55002C 1062.8888 431.8048 1061.9357 430.19357 1060.71 428.80002C 1059.5532 427.48734 1058.1587 426.405 1056.6 425.61002C 1055.0521 424.8201 1053.3378 424.41208 1051.6 424.42C 1049.8367 424.41235 1048.0964 424.82004 1046.52 425.61002C 1044.9412 426.39606 1043.5287 427.4792 1042.36 428.80002C 1041.1343 430.19357 1040.1812 431.8048 1039.5499 433.55002C 1038.8743 435.40155 1038.5355 437.3591 1038.5499 439.33002C 1038.5237 441.3736 1038.8624 443.40543 1039.5499 445.33002C 1040.2012 447.09906 1041.1517 448.74298 1042.36 450.19C 1043.511 451.55807 1044.9258 452.68036 1046.52 453.49C 1048.0973 454.2769 1049.8376 454.68115 1051.6 454.67z" stroke="none" fill="#2667FF" fill-rule="nonzero" />
            <path d="M1165.15 412.64L1165.15 460.51C 1164.9661 464.4094 1164.0502 468.23938 1162.4501 471.80002C 1159.4099 478.65985 1153.8342 484.07785 1146.89 486.92C 1143.3335 488.40558 1139.5144 489.16055 1135.66 489.14C 1125.082 489.16455 1115.2877 483.56668 1109.9401 474.44L1109.9401 474.44L1109.8301 474.23L1109.9401 474.12003L1121.8301 468.93002C 1122.5377 470.22052 1123.4688 471.37512 1124.5801 472.34003C 1125.6604 473.28375 1126.8608 474.08066 1128.15 474.71002C 1129.3899 475.32394 1130.6947 475.7969 1132.04 476.12003C 1133.2931 476.4334 1134.5786 476.59787 1135.87 476.61002C 1137.771 476.60477 1139.649 476.19574 1141.38 475.41C 1143.207 474.6046 1144.8455 473.42606 1146.1901 471.95C 1147.6343 470.37128 1148.7704 468.5364 1149.54 466.54C 1150.3901 464.30548 1150.8108 461.93057 1150.78 459.54L1150.78 459.54L1150.78 439.69C 1150.7949 437.6571 1150.3721 435.64484 1149.54 433.79C 1148.746 431.99628 1147.6078 430.37567 1146.1901 429.02002C 1144.773 427.6756 1143.1271 426.59525 1141.3301 425.83002C 1137.5637 424.24316 1133.3164 424.24316 1129.55 425.83002C 1127.765 426.59897 1126.135 427.68674 1124.74 429.04C 1121.8855 431.87473 1120.2893 435.7372 1120.3099 439.76C 1120.2936 441.78143 1120.6989 443.78406 1121.4999 445.64C 1122.2754 447.42276 1123.3738 449.04672 1124.7399 450.43002C 1126.119 451.81552 1127.7521 452.92236 1129.5499 453.69003C 1131.4088 454.49426 1133.4146 454.90292 1135.44 454.89005C 1137.448 454.93567 1139.4406 454.52896 1141.2699 453.70004L1141.2699 453.70004L1141.3799 453.70004L1141.4899 453.81003L1146.8899 463.35004L1146.7899 463.46002C 1143.0696 466.3827 1138.4387 467.90155 1133.71 467.75003C 1129.9303 467.768 1126.1869 467.0125 1122.71 465.53003C 1119.349 464.1329 1116.2922 462.095 1113.71 459.53003C 1111.16 456.9659 1109.1235 453.93832 1107.71 450.61002C 1104.7505 443.65512 1104.7505 435.79495 1107.71 428.84003C 1110.5792 422.11905 1115.9624 416.78613 1122.71 413.98004C 1126.189 412.50558 1129.9314 411.75372 1133.71 411.77005C 1141.0433 411.77005 1146.7334 414.52005 1150.7799 420.02005L1150.7799 420.02005L1150.7799 412.63004L1165.15 412.64z" stroke="none" fill="#2667FF" fill-rule="nonzero" />
            <path d="M1193.24 391L1207.61 391L1207.61 403.64L1193.24 403.64L1193.24 391zM1193.24 466.63L1193.24 412.63L1207.61 412.63L1207.61 466.63z" stroke="none" fill="#2667FF" fill-rule="nonzero" />
            <path d="M1262.71 411.78C 1266.4274 411.76096 1270.1083 412.5135 1273.52 413.99C 1280.1968 416.8493 1285.5151 422.17126 1288.37 428.84998C 1289.8617 432.2924 1290.6178 436.00842 1290.59 439.75998C 1290.5944 441.7943 1290.3765 443.82303 1289.94 445.80997L1289.94 445.80997L1289.83 446.02997L1262.39 446.02997L1255.48 435.02997L1276 435.02997C 1275.0741 432.11966 1273.3401 429.53244 1271 427.56998C 1268.6823 425.63815 1265.7467 424.6052 1262.73 424.65997C 1260.8296 424.6496 1258.9496 425.05222 1257.22 425.83997C 1253.7855 427.38376 1251.1055 430.22928 1249.77 433.74997C 1249.034 435.66373 1248.6676 437.69968 1248.6901 439.74997C 1248.7156 441.49936 1249.0543 443.23 1249.6901 444.85995C 1250.3314 446.61246 1251.2833 448.23508 1252.5001 449.64996C 1253.7482 451.10938 1255.2488 452.3322 1256.9302 453.25995C 1258.7141 454.24246 1260.7238 454.74228 1262.7601 454.70996C 1264.5754 454.73044 1266.3821 454.4569 1268.1101 453.89996C 1269.9686 453.18118 1271.5679 451.91983 1272.7001 450.27997L1272.7001 450.27997L1272.81 450.16998L1273.03 450.27997L1285.56 455.79996L1285.3501 456.01996C 1282.7955 459.61716 1279.4003 462.53525 1275.4601 464.51996C 1264.6464 470.03107 1251.5183 467.9962 1242.8801 459.46997C 1240.3379 456.92258 1238.3019 453.9161 1236.8801 450.61C 1233.9198 443.6726 1233.9198 435.8274 1236.8801 428.88998C 1239.7192 422.18683 1245.0507 416.8482 1251.75 414C 1255.2123 412.51584 1258.943 411.76016 1262.71 411.78z" stroke="none" fill="#2667FF" fill-rule="nonzero" />
            <path d="M1340.4 434.58C 1342.7667 435.37335 1344.9434 436.18335 1346.93 437.00998C 1348.7849 437.77646 1350.53 438.78525 1352.12 440.00998C 1353.5668 441.12357 1354.7485 442.5444 1355.58 444.16998C 1356.448 445.97034 1356.8732 447.95206 1356.82 449.94998L1356.82 449.94998L1356.82 450C 1356.82 455.47333 1355 459.75665 1351.36 462.85C 1347.7201 465.94336 1342.6267 467.49338 1336.08 467.5C 1331.9547 467.49536 1327.8612 466.77817 1323.98 465.38C 1319.9828 463.94366 1316.2292 461.90332 1312.85 459.33002L1312.85 459.33002L1312.74 459.22003L1312.85 459.11005L1320.19 447.51004L1320.2999 447.62003C 1322.3613 449.85596 1324.864 451.64017 1327.6499 452.86002C 1330.4116 454.0535 1333.3914 454.65964 1336.3999 454.64C 1340.6533 454.64 1342.7766 453.2767 1342.7699 450.55002C 1342.7748 449.25803 1341.9778 448.09845 1340.7699 447.64C 1339.1951 446.91354 1337.571 446.2987 1335.9099 445.80002C 1335.59 445.6682 1335.2535 445.58072 1334.9099 445.54C 1334.5669 445.49066 1334.2312 445.4 1333.9099 445.27002C 1331.75 444.69003 1329.5867 444.06003 1327.4199 443.38C 1325.3491 442.73898 1323.3846 441.79547 1321.59 440.58002C 1319.8594 439.3924 1318.4033 437.8477 1317.32 436.05002C 1316.1222 433.89597 1315.5442 431.4524 1315.6499 428.99002L1315.6499 428.99002L1315.6499 428.78003C 1315.6215 426.4067 1316.0988 424.05457 1317.0499 421.88004C 1317.9763 419.81442 1319.3412 417.9752 1321.0499 416.49002C 1322.8892 414.9218 1325.0199 413.73236 1327.32 412.99002C 1329.9336 412.13525 1332.6702 411.7163 1335.4199 411.75003C 1338.971 411.76205 1342.5013 412.29092 1345.8999 413.32004C 1349.391 414.34106 1352.7058 415.8889 1355.7299 417.91003L1355.7299 417.91003L1355.7299 418.12003L1349.1399 430.12003L1349.0299 430.01004C 1347.2717 428.28412 1345.1741 426.9424 1342.8699 426.07004C 1340.3978 425.0882 1337.7596 424.59247 1335.0999 424.61005C 1334.5215 424.6111 1333.9437 424.64786 1333.3699 424.72003C 1332.7452 424.78278 1332.138 424.9626 1331.5798 425.25003C 1331.0532 425.52872 1330.5928 425.91754 1330.2299 426.39005C 1329.8345 426.97903 1329.6447 427.6821 1329.6898 428.39005C 1329.71 429.08096 1330.027 429.72964 1330.5598 430.17004C 1331.2213 430.77536 1331.9655 431.28378 1332.7698 431.68005C 1333.7435 432.1863 1334.7451 432.63702 1335.7698 433.03006C 1336.8798 433.47006 1337.9797 433.86005 1339.0598 434.22006C 1339.3003 434.2253 1339.539 434.2623 1339.7698 434.33005L1339.7698 434.33005L1340.4 434.58z" stroke="none" fill="#2667FF" fill-rule="nonzero" />
            <path d="M673.71 213.88C 694.4135 234.63235 700.69556 265.75616 689.66223 292.91425C 678.6289 320.0723 652.42053 337.9965 623.11005 338.43L623.11005 338.43L532.86 338.43L532.86 275.5L622.12 275.5C 627.6594 275.5 632.15 271.00943 632.15 265.47C 632.15 259.93057 627.6594 255.44 622.12 255.44L622.12 255.44L584.56 255.44C 558.4796 255.44 534.3803 241.52628 521.34015 218.94C 508.29996 196.35371 508.29996 168.52628 521.34015 145.94C 534.3804 123.353714 558.4796 109.44 584.56 109.44L584.56 109.44L673.83 109.44L673.83 172.36L584.56 172.36C 580.96234 172.35999 577.63794 174.27933 575.8391 177.39499C 574.0403 180.51067 574.0403 184.34932 575.8391 187.465C 577.63794 190.58066 580.96234 192.5 584.56 192.5L584.56 192.5L622.12 192.5C 641.4793 192.45383 660.05396 200.14792 673.71 213.87L673.71 213.87L673.71 213.88z" stroke="none" fill="#2667FF" fill-rule="nonzero" />
            <path d="M952.87 109.6L952.87 338.6L889.94 338.6L889.94 326.3C 841.77875 350.60706 783.18353 337.99554 749.28687 296.02704C 715.3902 254.05853 715.3902 194.12146 749.28687 152.15295C 783.18353 110.18445 841.77875 97.57292 889.94 121.87999L889.94 121.87999L889.94 109.6L952.87 109.6zM838.38 275.66C 859.24304 275.66403 878.054 263.09955 886.0408 243.82574C 894.0275 224.55194 889.61707 202.36482 874.866 187.61098C 860.11505 172.85713 837.9288 168.44232 818.65344 176.42534C 799.3781 184.40836 786.80994 203.21693 786.81 224.08C 786.8375 252.55151 809.90845 275.62692 838.38 275.66z" stroke="none" fill="#2667FF" fill-rule="nonzero" />
            <path d="M1333.89 210.05L1333.89 338.6L1271 338.6L1271 210.05C 1271.0123 196.58362 1263.8352 184.1349 1252.175 177.39816C 1240.5148 170.6614 1226.1454 170.6614 1214.4851 177.39816C 1202.825 184.1349 1195.6478 196.58362 1195.66 210.05L1195.66 210.05L1195.66 338.6L1132.73 338.6L1132.73 210.05C 1132.9519 196.44354 1125.8201 183.77458 1114.0721 176.90646C 1102.3241 170.03835 1087.7856 170.03835 1076.0377 176.90646C 1064.2898 183.7746 1057.158 196.44354 1057.38 210.05L1057.38 210.05L1057.38 338.58L994.41 338.58L994.41 109.57999L1057.34 109.57999L1057.34 116.72999C 1093.8438 101.98532 1135.5951 109.90798 1164.16 137C 1193.3206 109.34076 1236.1519 101.70583 1273.0735 117.58562C 1309.995 133.4654 1333.9117 169.80835 1333.89 210L1333.89 210L1333.89 210.05z" stroke="none" fill="#2667FF" fill-rule="nonzero" />
            <path d="M1596.62 182.77C 1613.6494 226.94962 1601.7269 277.05402 1566.624 308.82858C 1531.521 340.60315 1480.4805 347.49182 1438.21 326.16L1438.21 326.16L1438.21 473.44L1375.2899 473.44L1375.2899 109.44L1438.21 109.44L1438.21 121.73C 1467.0782 107.14725 1500.7683 105.45822 1530.9503 117.08058C 1561.1322 128.70294 1584.9884 152.5517 1596.62 182.73001L1596.62 182.73001L1596.62 182.77zM1489.78 275.52002C 1512.5002 275.52142 1532.5455 260.65637 1539.1417 238.9149C 1545.7379 217.17343 1537.3312 193.67628 1518.4404 181.05334C 1499.5497 168.43042 1474.624 169.65475 1457.0612 184.06827C 1439.4984 198.48177 1433.435 222.68967 1442.13 243.68002C 1450.1266 262.9417 1468.9244 275.50256 1489.78 275.52002z" stroke="none" fill="#2667FF" fill-rule="nonzero" />
            <path d="M1585.71 46.94L1579.1699 37.94C 1579.0199 37.73 1578.7999 37.579998 1579.1699 37.32C 1582.44 35.05 1583.6299 31.789999 1583.4299 27.97C 1583.4066 24.652092 1581.6099 21.60026 1578.72 19.97C 1576.8358 18.888588 1574.7024 18.31648 1572.53 18.31C 1568.8 18.25 1565.0801 18.31 1561.36 18.31C 1560.94 18.31 1560.85 18.43 1560.85 18.83C 1560.85 28.230001 1560.85 37.633335 1560.85 47.04C 1560.85 47.510002 1561.01 47.56 1561.41 47.56C 1563.1 47.56 1564.78 47.56 1566.4701 47.56C 1566.92 47.56 1567.06 47.48 1567.06 46.99C 1567.06 44.68 1567.06 42.370003 1567.06 40.06C 1567.06 39.56 1567.15 39.390003 1567.6901 39.4C 1569.13 39.4 1570.56 39.4 1572.0001 39.4C 1572.3466 39.361805 1572.6844 39.524918 1572.8701 39.82C 1574.6301 42.27 1576.4102 44.7 1578.1802 47.13C 1578.3113 47.391327 1578.5776 47.557323 1578.8701 47.56C 1581.2601 47.56 1583.6501 47.56 1586.1602 47.56C 1586 47.26 1585.83 47.1 1585.71 46.94zM1573.48 33C 1571.4515 33.175117 1569.4144 33.225216 1567.38 33.15C 1567.03 33.15 1567.04 32.97 1567.04 32.72L1567.04 32.72L1567.04 25C 1567.04 24.79 1566.9701 24.52 1567.3501 24.53C 1569.5089 24.424736 1571.6726 24.494965 1573.8201 24.74C 1575.39 25.03 1576.7401 25.74 1577.1001 27.46C 1577.77 30.49 1576.57 32.55 1573.48 33z" stroke="none" fill="#2667FF" fill-rule="nonzero" />
            <path d="M1603.76 34.49C 1603.76 34.34 1603.7 34.170002 1603.8201 34.030003C 1603.6301 34.160004 1603.7001 34.350002 1603.7101 34.530003L1603.7101 34.530003L1603.7101 34.780003C 1603.7101 34.890003 1603.7101 35.000004 1603.8201 35.030003C 1603.7714 34.971584 1603.7496 34.895336 1603.76 34.820004L1603.76 34.820004L1603.76 34.49z" stroke="none" fill="#2667FF" fill-rule="nonzero" />
            <path d="M1603.82 34L1603.82 30.41C 1603.6799 29.17 1603.6399 27.93 1603.3899 26.71C 1600.7493 13.598927 1590.3127 3.4644947 1577.1299 1.2099991C 1576.1299 1.0399991 1575.19 1.0699991 1574.2299 0.9399991L1574.2299 0.9399991L1569.3599 0.9399991C 1569.3126 0.9804559 1569.252 1.0018486 1569.1898 0.9999991C 1566.7134 1.0689697 1564.2633 1.5279388 1561.9298 2.3599992C 1552.3052 5.5375443 1544.7205 13.033455 1541.4298 22.619999C 1540.5604 25.163528 1540.0488 27.81558 1539.9098 30.5C 1539.905 30.519726 1539.905 30.540272 1539.9098 30.56C 1539.8298 32.052277 1539.8298 33.54772 1539.9098 35.04C 1539.9615 36.38255 1540.1119 37.719517 1540.3597 39.04L1540.3597 39.04L1540.4198 39.31C 1540.6589 40.521603 1540.9729 41.71718 1541.3597 42.89C 1543.1691 48.46502 1546.4845 53.431282 1550.9397 57.239998C 1553.9983 59.875908 1557.5266 61.911472 1561.3397 63.239998C 1565.4124 64.609276 1569.7123 65.17308 1574 64.9C 1576.6815 64.7737 1579.3331 64.27905 1581.88 63.43C 1587.4547 61.62045 1592.4185 58.30085 1596.22 53.84C 1600.1022 49.365234 1602.6611 43.89757 1603.61 38.05C 1603.75 37.219997 1603.72 36.36 1603.86 35.53L1603.86 35.53L1603.86 35C 1603.7 35 1603.74 34.86 1603.75 34.75L1603.75 34.75L1603.75 34.5C 1603.7 34.35 1603.63 34.16 1603.82 34zM1571.7599 56C 1562.3912 55.963337 1553.9684 50.283604 1550.4225 41.611824C 1546.8767 32.94005 1548.9072 22.98605 1555.5662 16.395872C 1562.2251 9.805698 1572.1997 7.8787384 1580.8342 11.514402C 1589.4686 15.15007 1595.0607 23.631504 1595 33C 1594.9816 39.140514 1592.521 45.021427 1588.1613 49.345585C 1583.8014 53.669746 1577.9005 56.0819 1571.76 56.05z" stroke="none" fill="#2667FF" fill-rule="nonzero" />
            <path d="M1603.82 34L1603.82 34.5C 1603.8009 34.509026 1603.7789 34.509026 1603.7599 34.5L1603.7599 34.5L1603.7599 34.5C 1603.7 34.35 1603.63 34.16 1603.82 34z" stroke="none" fill="#2667FF" fill-rule="nonzero" />
            <path d="M1603.82 34.53L1603.82 34.78C 1603.8009 34.789024 1603.7789 34.789024 1603.7599 34.78C 1603.7599 34.78 1603.7599 34.78 1603.7599 34.78L1603.7599 34.78L1603.7599 34.53L1603.8699 34.53L1603.82 34.53z" stroke="none" fill="#2667FF" fill-rule="nonzero" />
            <path d="M1603.82 34.78L1603.82 35C 1603.6599 35 1603.7 34.86 1603.71 34.75L1603.71 34.75L1603.82 34.75L1603.82 34.78z" stroke="none" fill="#2667FF" fill-rule="nonzero" />
            <path d="M1585.71 46.94L1579.1699 37.94C 1579.0199 37.73 1578.7999 37.579998 1579.1699 37.32C 1582.44 35.05 1583.6299 31.789999 1583.4299 27.97C 1583.4066 24.652092 1581.6099 21.60026 1578.72 19.97C 1576.8358 18.888588 1574.7024 18.31648 1572.53 18.31C 1568.8 18.25 1565.0801 18.31 1561.36 18.31C 1560.94 18.31 1560.85 18.43 1560.85 18.83C 1560.85 28.230001 1560.85 37.633335 1560.85 47.04C 1560.85 47.510002 1561.01 47.56 1561.41 47.56C 1563.1 47.56 1564.78 47.56 1566.4701 47.56C 1566.92 47.56 1567.06 47.48 1567.06 46.99C 1567.06 44.68 1567.06 42.370003 1567.06 40.06C 1567.06 39.56 1567.15 39.390003 1567.6901 39.4C 1569.13 39.4 1570.56 39.4 1572.0001 39.4C 1572.3466 39.361805 1572.6844 39.524918 1572.8701 39.82C 1574.6301 42.27 1576.4102 44.7 1578.1802 47.13C 1578.3113 47.391327 1578.5776 47.557323 1578.8701 47.56C 1581.2601 47.56 1583.6501 47.56 1586.1602 47.56C 1586 47.26 1585.83 47.1 1585.71 46.94zM1573.48 33C 1571.4515 33.175117 1569.4144 33.225216 1567.38 33.15C 1567.03 33.15 1567.04 32.97 1567.04 32.72L1567.04 32.72L1567.04 25C 1567.04 24.79 1566.9701 24.52 1567.3501 24.53C 1569.5089 24.424736 1571.6726 24.494965 1573.8201 24.74C 1575.39 25.03 1576.7401 25.74 1577.1001 27.46C 1577.77 30.49 1576.57 32.55 1573.48 33z" stroke="none" fill="#2667FF" fill-rule="nonzero" />
            <path d="M1585.71 46.94L1579.1699 37.94C 1579.0199 37.73 1578.7999 37.579998 1579.1699 37.32C 1582.44 35.05 1583.6299 31.789999 1583.4299 27.97C 1583.4066 24.652092 1581.6099 21.60026 1578.72 19.97C 1576.8358 18.888588 1574.7024 18.31648 1572.53 18.31C 1568.8 18.25 1565.0801 18.31 1561.36 18.31C 1560.94 18.31 1560.85 18.43 1560.85 18.83C 1560.85 28.230001 1560.85 37.633335 1560.85 47.04C 1560.85 47.510002 1561.01 47.56 1561.41 47.56C 1563.1 47.56 1564.78 47.56 1566.4701 47.56C 1566.92 47.56 1567.06 47.48 1567.06 46.99C 1567.06 44.68 1567.06 42.370003 1567.06 40.06C 1567.06 39.56 1567.15 39.390003 1567.6901 39.4C 1569.13 39.4 1570.56 39.4 1572.0001 39.4C 1572.3466 39.361805 1572.6844 39.524918 1572.8701 39.82C 1574.6301 42.27 1576.4102 44.7 1578.1802 47.13C 1578.3113 47.391327 1578.5776 47.557323 1578.8701 47.56C 1581.2601 47.56 1583.6501 47.56 1586.1602 47.56C 1586 47.26 1585.83 47.1 1585.71 46.94zM1573.48 33C 1571.4515 33.175117 1569.4144 33.225216 1567.38 33.15C 1567.03 33.15 1567.04 32.97 1567.04 32.72L1567.04 32.72L1567.04 25C 1567.04 24.79 1566.9701 24.52 1567.3501 24.53C 1569.5089 24.424736 1571.6726 24.494965 1573.8201 24.74C 1575.39 25.03 1576.7401 25.74 1577.1001 27.46C 1577.77 30.49 1576.57 32.55 1573.48 33z" stroke="none" fill="#2667FF" fill-rule="nonzero" />
		</g>
	</g>
</g>
</svg>